<?xml version="1.0" encoding="UTF-8"?>
<svg version="1.1" xmlns="http://www.w3.org/2000/svg" width="643" height="510">
<path d="M0 0 C1.08966064 0.00684814 2.17932129 0.01369629 3.30200195 0.02075195 C23.49210237 0.41266448 46.85147634 4.60457102 62.125 18.8125 C68.48174272 25.5740353 70.66066018 33.14476845 70.515625 42.2578125 C69.54506098 53.87603471 64.6279109 63.02970983 58.44335938 72.58398438 C56.86323089 75.03822649 55.33759531 77.52414569 53.81347656 80.01342773 C52.80852242 81.65443757 51.79514126 83.29027808 50.78125 84.92578125 C49.27526705 87.31718798 49.27526705 87.31718798 48.25 89.4375 C49.013125 89.375625 49.77625 89.31375 50.5625 89.25 C53.25 89.4375 53.25 89.4375 54.85595703 90.70410156 C56.43354615 92.66572726 56.81061978 93.89741152 57.2421875 96.359375 C57.38744873 97.13063721 57.53270996 97.90189941 57.68237305 98.6965332 C57.82843994 99.51855225 57.97450684 100.34057129 58.125 101.1875 C59.58785875 108.80555677 61.56250137 115.94853321 64.19921875 123.23828125 C65.20885576 126.31223185 65.80942952 129.23731226 66.25 132.4375 C69.22 132.4375 72.19 132.4375 75.25 132.4375 C77.00334156 128.66348933 77.46407371 125.82921858 77.33984375 121.68359375 C77.31986328 120.58080078 77.29988281 119.47800781 77.27929688 118.34179688 C77.21881962 116.0578155 77.15382676 113.77394855 77.08398438 111.49023438 C76.9364985 102.71736791 77.51802129 93.99079785 82.125 86.3125 C84.49613041 84.22032611 86.17479957 83.18754889 89.25 82.4375 C92.05023355 82.63751668 93.64844031 82.96312794 95.85894775 84.70626831 C97.60794299 86.88297734 97.71012741 88.17900007 97.88183594 90.94970703 C97.94489929 91.86140656 98.00796265 92.77310608 98.07293701 93.71243286 C98.12621155 94.69678314 98.17948608 95.68113342 98.234375 96.6953125 C98.29908997 97.71293671 98.36380493 98.73056091 98.43048096 99.77902222 C98.56463717 101.9356112 98.69195751 104.0926346 98.81298828 106.25 C98.99815827 109.5298778 99.2062294 112.80767938 99.41796875 116.0859375 C99.5456422 118.18481286 99.67198632 120.28376959 99.796875 122.3828125 C99.88893219 123.84111984 99.88893219 123.84111984 99.98284912 125.32888794 C100.70386416 138.62765774 98.79986211 148.03378429 90.25 158.4375 C91.5113603 157.11490862 92.7584656 155.77871964 94 154.4375 C94.69609375 153.695 95.3921875 152.9525 96.109375 152.1875 C100.95438989 145.96324729 103.07745705 139.14871383 105.125 131.625 C108.07249147 121.37551195 111.08314746 111.68762673 120.25 105.4375 C122.73754786 104.19372607 124.47655301 104.30443765 127.25 104.3125 C128.5803125 104.30863281 128.5803125 104.30863281 129.9375 104.3046875 C132.25 104.4375 132.25 104.4375 134.25 105.4375 C134.13513575 107.81337624 134.00841844 110.18765171 133.875 112.5625 C133.82859375 113.56023437 133.82859375 113.56023437 133.78125 114.578125 C133.52895865 118.86707787 132.71758781 122.41758557 131.25 126.4375 C130.61019186 128.80855368 129.98606863 131.18387747 129.375 133.5625 C119.61192264 170.4900376 98.53142104 191.62270276 66.25 210.4375 C65.29867188 210.96730469 64.34734375 211.49710938 63.3671875 212.04296875 C61.03739139 213.26784011 61.03739139 213.26784011 60.4375 215.8125 C58.57116593 219.93808058 55.32393903 221.66592245 51.25 223.4375 C48.24395221 224.07402017 45.3189848 224.35935455 42.25 224.4375 C41.92 225.4275 41.59 226.4175 41.25 227.4375 C36.01528314 228.19362577 31.47745859 228.6438366 26.25 227.4375 C25.96125 228.076875 25.6725 228.71625 25.375 229.375 C24.25 231.4375 24.25 231.4375 22.25 232.4375 C20.53766312 232.3504796 18.82824594 232.19652838 17.125 232 C16.21492187 231.89816406 15.30484375 231.79632813 14.3671875 231.69140625 C13.66851562 231.60761719 12.96984375 231.52382813 12.25 231.4375 C11.92 232.4275 11.59 233.4175 11.25 234.4375 C8.64080172 235.74209914 6.66057385 235.5701594 3.75 235.5625 C2.7703125 235.56507813 1.790625 235.56765625 0.78125 235.5703125 C-1.75 235.4375 -1.75 235.4375 -3.75 234.4375 C-3.75 235.0975 -3.75 235.7575 -3.75 236.4375 C-7.99126012 238.55813006 -13.5944322 237.65149404 -18.125 236.8125 C-20.97716786 236.10737117 -20.97716786 236.10737117 -23.75 238.4375 C-25.984375 238.703125 -25.984375 238.703125 -28.5 238.6875 C-29.31984375 238.69265625 -30.1396875 238.6978125 -30.984375 238.703125 C-33.75 238.4375 -33.75 238.4375 -40.75 236.4375 C-41.41 246.3375 -42.07 256.2375 -42.75 266.4375 C-40.77 265.7775 -38.79 265.1175 -36.75 264.4375 C-34.48339844 264.07446289 -34.48339844 264.07446289 -32.359375 263.91015625 C-31.17819092 263.80779663 -31.17819092 263.80779663 -29.97314453 263.70336914 C-29.15700684 263.63625732 -28.34086914 263.56914551 -27.5 263.5 C-14.37025252 262.28988169 -14.37025252 262.28988169 -2.75 256.4375 C-2.75 255.7775 -2.75 255.1175 -2.75 254.4375 C-9.80761162 252.90323661 -15.95384567 254.17211522 -22.75 256.4375 C-27.78943886 256.84329751 -32.16808226 256.80236077 -36.75 254.4375 C-36.625 252.1875 -36.625 252.1875 -35.75 249.4375 C-28.31984283 243.34720724 -19.65949214 244.95478122 -10.6484375 245.79296875 C3.20380435 247.39130435 3.20380435 247.39130435 7.25 251.4375 C7.64893717 254.94814709 7.61717554 256.85207981 5.71875 259.87890625 C2.61737927 263.09314332 -0.56227622 264.73015715 -4.5625 266.625 C-5.24892578 266.96724609 -5.93535156 267.30949219 -6.64257812 267.66210938 C-10.93826463 269.75508813 -15.12032243 271.25738611 -19.75 272.4375 C-18.945625 273.241875 -18.14125 274.04625 -17.3125 274.875 C-13.75 278.4375 -13.75 278.4375 -13.4375 281.625 C-13.81797353 286.26677705 -14.69360464 287.93382727 -17.75 291.4375 C-22.68612132 295.34446861 -27.88774035 298.19237928 -33.75 300.4375 C-32.80125 301.18 -31.8525 301.9225 -30.875 302.6875 C-28.3288656 304.68012692 -26.92210062 306.40249548 -25.75 309.4375 C-25.3006138 313.63177123 -25.93735949 317.15862607 -28.20703125 320.73046875 C-31.26514217 324.38820926 -33.96569647 327.27766884 -38.75 328.4375 C-38.75 329.0975 -38.75 329.7575 -38.75 330.4375 C-38.151875 330.705625 -37.55375 330.97375 -36.9375 331.25 C-33.78774923 332.9598647 -32.18793358 334.31138508 -30.875 337.6875 C-30.70354266 341.45956141 -31.74167042 344.31105785 -33.75 347.4375 C-35.64339035 349.35491814 -37.56452833 350.83482078 -39.75 352.4375 C-39.234375 353.38625 -38.71875 354.335 -38.1875 355.3125 C-36.15414942 360.08603255 -36.53168145 364.46610618 -37.75 369.4375 C-38.85269231 371.91232076 -39.93422837 373.35470313 -41.75 375.4375 C-42.74 375.7675 -43.73 376.0975 -44.75 376.4375 C-44.42 377.4275 -44.09 378.4175 -43.75 379.4375 C-43.09 379.7675 -42.43 380.0975 -41.75 380.4375 C-41.75 381.0975 -41.75 381.7575 -41.75 382.4375 C-42.74 382.4375 -43.73 382.4375 -44.75 382.4375 C-44.75 384.0875 -44.75 385.7375 -44.75 387.4375 C-46.07 388.0975 -47.39 388.7575 -48.75 389.4375 C-50.8508146 386.02367627 -50.92214593 383.39685641 -50.75 379.4375 C-50.75 376.44539239 -52.65244202 375.18055683 -54.50390625 373.00390625 C-57.59074379 369.12358696 -58.12207515 365.35419114 -58.01953125 360.44140625 C-57.61079855 357.40256747 -56.31085134 355.03891889 -54.75 352.4375 C-55.23210937 352.08558594 -55.71421875 351.73367188 -56.2109375 351.37109375 C-60.6950595 347.86615758 -62.99934514 345.33550251 -63.75 339.4375 C-62.81384213 335.41202118 -60.88620694 333.0836746 -57.75 330.4375 C-57.09 330.4375 -56.43 330.4375 -55.75 330.4375 C-55.75 329.7775 -55.75 329.1175 -55.75 328.4375 C-56.430625 328.2725 -57.11125 328.1075 -57.8125 327.9375 C-62.50155797 325.54308742 -66.38589869 321.16570261 -68.75 316.4375 C-69.12838031 311.42396089 -68.88135639 308.43267885 -65.75 304.4375 C-64.10006476 303.08351727 -62.4350704 301.74749745 -60.75 300.4375 C-61.54664063 300.06238281 -62.34328125 299.68726563 -63.1640625 299.30078125 C-76.45334928 292.88247608 -76.45334928 292.88247608 -80.75 286.4375 C-81.32609682 281.33492814 -81.32609682 281.33492814 -80.75 278.4375 C-78.3125 275.5 -78.3125 275.5 -75.75 273.4375 C-75.42 273.1075 -75.09 272.7775 -74.75 272.4375 C-75.64460937 272.14617187 -76.53921875 271.85484375 -77.4609375 271.5546875 C-97.07097036 264.90651005 -97.07097036 264.90651005 -101.75 257.4375 C-102.1875 254.375 -102.1875 254.375 -101.75 251.4375 C-97.46602591 246.43953023 -88.88264437 246.11613202 -82.66796875 245.60546875 C-79.11085787 245.40070869 -75.56189147 245.22617028 -72 245.125 C-70.76765625 245.08761719 -69.5353125 245.05023438 -68.265625 245.01171875 C-64.08609473 245.51790631 -61.97147883 246.77228253 -58.75 249.4375 C-57.875 252.1875 -57.875 252.1875 -57.75 254.4375 C-62.28348856 256.77736506 -66.75345001 257.01929007 -71.75 256.4375 C-72.86955078 255.95410156 -72.86955078 255.95410156 -74.01171875 255.4609375 C-77.69308353 254.08502085 -81.16230768 253.97980047 -85.0625 253.8125 C-86.17334961 253.75449219 -86.17334961 253.75449219 -87.30664062 253.6953125 C-89.12071309 253.60168295 -90.93532116 253.51853149 -92.75 253.4375 C-92.75 254.7575 -92.75 256.0775 -92.75 257.4375 C-79.19026796 262.07526111 -67.02406353 263.99143551 -52.75 264.4375 C-53.08 255.1975 -53.41 245.9575 -53.75 236.4375 C-57.215 237.4275 -57.215 237.4275 -60.75 238.4375 C-63.515625 238.703125 -63.515625 238.703125 -66 238.6875 C-66.83015625 238.69265625 -67.6603125 238.6978125 -68.515625 238.703125 C-70.75 238.4375 -70.75 238.4375 -73.75 236.4375 C-75.75720923 236.72424418 -77.75630969 237.06829809 -79.75 237.4375 C-81.28975957 237.53640817 -82.83231942 237.59708966 -84.375 237.625 C-85.10976563 237.63917969 -85.84453125 237.65335938 -86.6015625 237.66796875 C-88.75 237.4375 -88.75 237.4375 -90.67578125 236.42578125 C-93.36194186 235.14593448 -95.35659143 235.30880738 -98.3125 235.4375 C-103.41751592 235.65915605 -103.41751592 235.65915605 -106.75 233.4375 C-106.75 232.7775 -106.75 232.1175 -106.75 231.4375 C-107.74 231.7675 -108.73 232.0975 -109.75 232.4375 C-115.95058565 232.88845168 -115.95058565 232.88845168 -119.1875 231.0625 C-120.75 229.4375 -120.75 229.4375 -120.75 227.4375 C-121.85408203 227.58058594 -121.85408203 227.58058594 -122.98046875 227.7265625 C-123.95628906 227.83742188 -124.93210937 227.94828125 -125.9375 228.0625 C-126.90042969 228.17851562 -127.86335938 228.29453125 -128.85546875 228.4140625 C-132.04446548 228.43988434 -133.87625048 227.75774531 -136.75 226.4375 C-138.18498057 225.99180586 -139.62247382 225.554112 -141.0625 225.125 C-145.6459566 223.59973602 -150.13735806 221.71226895 -153.75 218.4375 C-154.01973633 217.64351807 -154.28947266 216.84953613 -154.56738281 216.03149414 C-156.01581205 212.8544585 -157.27043795 212.12058157 -160.30078125 210.45703125 C-161.22101074 209.9377002 -162.14124023 209.41836914 -163.08935547 208.88330078 C-164.07049316 208.34431152 -165.05163086 207.80532227 -166.0625 207.25 C-174.91020066 202.21317639 -182.93866875 196.9644569 -190.75 190.4375 C-191.47832031 189.87160156 -192.20664063 189.30570313 -192.95703125 188.72265625 C-216.873904 169.42876877 -225.30320722 137.32648341 -228.48828125 108.1640625 C-228.57464844 107.26429688 -228.66101563 106.36453125 -228.75 105.4375 C-225.02566476 103.57533238 -220.81462296 104.01723806 -216.75 104.4375 C-209.15696913 107.64993614 -205.73686326 115.81260823 -202.6875 123.0625 C-201.26154761 126.76763857 -200.14319925 130.5228142 -199.0480957 134.33740234 C-196.82080997 141.99798287 -194.17606556 148.36964174 -188.75 154.4375 C-188.42 154.4375 -188.09 154.4375 -187.75 154.4375 C-188.17152344 153.76203125 -188.59304687 153.0865625 -189.02734375 152.390625 C-189.84912109 151.05257812 -189.84912109 151.05257812 -190.6875 149.6875 C-191.50541016 148.36492187 -191.50541016 148.36492187 -192.33984375 147.015625 C-198.12707747 136.4350869 -194.51606255 119.43489701 -193.63305664 107.80810547 C-193.43471811 105.15022052 -193.25732053 102.49139667 -193.08007812 99.83203125 C-192.95439513 98.13271808 -192.82748881 96.43349485 -192.69921875 94.734375 C-192.64908127 93.94383728 -192.59894379 93.15329956 -192.54728699 92.33880615 C-192.10421676 86.91726421 -192.10421676 86.91726421 -190.30004883 84.47363281 C-188.27176058 83.11782003 -187.22290463 82.57488359 -184.75 82.4375 C-180.23809883 83.72661462 -177.7827178 84.78890958 -175.375 88.875 C-173.0214644 94.03467421 -172.60262436 97.96090325 -172.46875 103.65234375 C-172.44113586 104.69147667 -172.44113586 104.69147667 -172.41296387 105.75160217 C-172.35442412 107.95931821 -172.30153108 110.16710994 -172.25 112.375 C-172.18203331 115.28009973 -172.10833817 118.18497337 -172.03125 121.08984375 C-172.00095703 122.37882568 -171.97066406 123.66780762 -171.93945312 124.99584961 C-171.77801068 127.92865139 -171.4240086 130.58626627 -170.75 133.4375 C-167.45 133.4375 -164.15 133.4375 -160.75 133.4375 C-160.64429688 132.29410156 -160.53859375 131.15070313 -160.4296875 129.97265625 C-159.85077024 125.350459 -158.45915713 121.23683101 -156.875 116.875 C-154.37232938 109.75726528 -152.66912537 102.82545389 -151.48828125 95.37890625 C-150.73569379 92.38050226 -150.28695079 91.15966368 -147.75 89.4375 C-146.76 89.4375 -145.77 89.4375 -144.75 89.4375 C-145.08 88.4475 -145.41 87.4575 -145.75 86.4375 C-146.6761905 75.66320792 -146.55578572 66.43037455 -139.75 57.4375 C-124.92572815 41.96644491 -99.035068 37.68168968 -78.51635742 37.15454102 C-68.27275799 37.03428531 -58.96220816 37.5939932 -50.75 44.4375 C-47.37740534 48.07635213 -46.43543809 50.9676557 -46.1875 55.8125 C-46.50892261 63.46443185 -49.90244337 67.92155753 -55.375 73 C-58.48650732 75.58999291 -61.74607083 77.74757106 -65.1875 79.875 C-76.14943808 86.65965938 -76.14943808 86.65965938 -82.38671875 97.50390625 C-83.52940681 103.58595559 -82.89934842 109.06566837 -79.75 114.4375 C-75.74783322 119.14736701 -71.10621029 123.15702164 -66.4375 127.1875 C-60.70954072 132.14263938 -56.38182761 137.3448172 -55.42578125 145.05078125 C-55.10735862 152.98938681 -56.97273973 158.02543738 -61.9375 164.125 C-72.319871 172.66161616 -82.74961212 173.36263193 -95.75 172.4375 C-99.55031065 171.73389028 -103.12716452 170.77810872 -106.75 169.4375 C-107.08 170.0975 -107.41 170.7575 -107.75 171.4375 C-106.65042969 171.98277344 -105.55085938 172.52804687 -104.41796875 173.08984375 C-85.36101893 182.72630228 -72.32520607 195.26099739 -62.75 214.4375 C-62.75 215.0975 -62.75 215.7575 -62.75 216.4375 C-59.78 216.7675 -56.81 217.0975 -53.75 217.4375 C-53.42 212.1575 -53.09 206.8775 -52.75 201.4375 C-54.07 200.7775 -55.39 200.1175 -56.75 199.4375 C-57.75 198.4375 -57.75 198.4375 -58.125 195.1875 C-57.75 191.4375 -57.75 191.4375 -55.9375 188.5 C-51.28838583 185.49174966 -47.13794756 185.43584258 -41.75 186.4375 C-38.5625 188.5625 -38.5625 188.5625 -36.75 191.4375 C-36.16877014 194.99753292 -36.31703291 196.68964775 -38.125 199.8125 C-38.66125 200.34875 -39.1975 200.885 -39.75 201.4375 C-40.41 201.4375 -41.07 201.4375 -41.75 201.4375 C-41.42 206.7175 -41.09 211.9975 -40.75 217.4375 C-34.02589048 217.30047921 -34.02589048 217.30047921 -32.0625 214.28515625 C-31.629375 213.34542969 -31.19625 212.40570313 -30.75 211.4375 C-19.44818893 192.57760278 -6.67965576 180.88542038 13.25 171.4375 C13.04761719 170.68082031 12.84523438 169.92414063 12.63671875 169.14453125 C12.14285504 165.68748529 13.40571337 164.18404003 15.19140625 161.3046875 C19.12568061 154.3652663 19.39993501 144.73949042 17.73828125 137.078125 C17.57714844 136.53671875 17.41601562 135.9953125 17.25 135.4375 C16.46238281 135.48390625 15.67476562 135.5303125 14.86328125 135.578125 C4.61693168 135.91764901 -5.21900886 134.78709233 -13.375 128.0625 C-18.70716899 122.74155663 -20.35507521 117.66464427 -20.796875 110.234375 C-20.63515234 100.58492278 -15.41726021 94.93977706 -8.75 88.4375 C-5.66080939 85.59963006 -2.52725879 82.81890681 0.6484375 80.078125 C4.78382843 75.88064111 6.67884865 71.96272181 6.6875 66.0625 C6.44575758 59.44592045 5.00072873 55.07923759 0.1796875 50.44921875 C-4.30094817 46.73936768 -9.06706416 43.54658871 -13.9375 40.375 C-21.2247284 35.57929185 -27.16950385 31.08975179 -29.75 22.4375 C-30.48783167 17.09601437 -29.7650624 12.9600936 -26.75 8.4375 C-19.26891321 0.7782921 -10.32264205 -0.10045389 0 0 Z M-135.75 107.4375 C-137.18478599 118.04466787 -137.99459012 128.34778275 -137.58789062 139.06152344 C-137.53511844 141.18688073 -137.62997082 143.31487862 -137.75 145.4375 C-138.74 146.0975 -139.73 146.7575 -140.75 147.4375 C-137.78 150.4075 -134.81 153.3775 -131.75 156.4375 C-130.76 155.9425 -130.76 155.9425 -129.75 155.4375 C-130.224375 154.756875 -130.69875 154.07625 -131.1875 153.375 C-134.46061231 147.22154885 -133.9575159 143.47755311 -132 136.9375 C-130.81499524 133.33706741 -129.5534718 129.86486345 -127.9375 126.4375 C-126.56393633 122.96744441 -126.70894504 121.95041945 -127.75 118.4375 C-129.32274176 115.49515049 -129.32274176 115.49515049 -131.25 112.625 C-131.8790625 111.64917969 -132.508125 110.67335938 -133.15625 109.66796875 C-133.6821875 108.93191406 -134.208125 108.19585937 -134.75 107.4375 C-135.08 107.4375 -135.41 107.4375 -135.75 107.4375 Z M41.25 118.4375 C39.8959068 120.42350337 38.56542376 122.42567543 37.25 124.4375 C36.67378906 125.06011719 36.09757812 125.68273437 35.50390625 126.32421875 C33.94299297 128.39478585 33.94299297 128.39478585 34.83203125 130.84765625 C35.23808594 131.72292969 35.64414062 132.59820312 36.0625 133.5 C38.71565913 140.04095667 39.67993012 146.49700556 37.2265625 153.2578125 C36.90429688 153.97710937 36.58203125 154.69640625 36.25 155.4375 C40.80015893 153.92078036 42.75057264 150.26858947 45.25 146.4375 C44.59 146.1075 43.93 145.7775 43.25 145.4375 C42.92 136.5275 42.59 127.6175 42.25 118.4375 C41.92 118.4375 41.59 118.4375 41.25 118.4375 Z M82.25 139.4375 C82.25 142.4075 82.25 145.3775 82.25 148.4375 C82.58 148.4375 82.91 148.4375 83.25 148.4375 C83.25 145.4675 83.25 142.4975 83.25 139.4375 C82.92 139.4375 82.59 139.4375 82.25 139.4375 Z M-178.75 142.4375 C-177.75 145.4375 -177.75 145.4375 -177.75 145.4375 Z M48.25 142.4375 C47.26 143.9225 47.26 143.9225 46.25 145.4375 C47.57 144.7775 48.89 144.1175 50.25 143.4375 C49.59 143.1075 48.93 142.7775 48.25 142.4375 Z M-177.75 146.4375 C-176.75 149.4375 -176.75 149.4375 -176.75 149.4375 Z M81.25 148.4375 C80.92 149.7575 80.59 151.0775 80.25 152.4375 C80.91 152.1075 81.57 151.7775 82.25 151.4375 C81.92 150.4475 81.59 149.4575 81.25 148.4375 Z M-176.75 149.4375 C-175.75 151.4375 -175.75 151.4375 -175.75 151.4375 Z M-175.75 151.4375 C-175.42 152.4275 -175.09 153.4175 -174.75 154.4375 C-174.75 153.4475 -174.75 152.4575 -174.75 151.4375 C-175.08 151.4375 -175.41 151.4375 -175.75 151.4375 Z M79.25 152.4375 C80.25 154.4375 80.25 154.4375 80.25 154.4375 Z M-173.75 154.4375 C-173.09 155.7575 -172.43 157.0775 -171.75 158.4375 C-171.75 157.4475 -171.75 156.4575 -171.75 155.4375 C-172.41 155.1075 -173.07 154.7775 -173.75 154.4375 Z M77.25 155.4375 C75.27 157.7475 73.29 160.0575 71.25 162.4375 C74.48475448 160.82012276 75.95572021 159.96120777 78.25 157.4375 C77.92 156.7775 77.59 156.1175 77.25 155.4375 Z M87.25 159.4375 C87.58 160.0975 87.91 160.7575 88.25 161.4375 C88.58 160.7775 88.91 160.1175 89.25 159.4375 C88.59 159.4375 87.93 159.4375 87.25 159.4375 Z M84.25 162.4375 C83.92 163.0975 83.59 163.7575 83.25 164.4375 C84.24 164.1075 85.23 163.7775 86.25 163.4375 C85.59 163.1075 84.93 162.7775 84.25 162.4375 Z M-179.75 163.4375 C-178.76 164.9225 -178.76 164.9225 -177.75 166.4375 C-177.09 166.1075 -176.43 165.7775 -175.75 165.4375 C-177.07 164.7775 -178.39 164.1175 -179.75 163.4375 Z M-174.75 167.4375 C-173.76 168.9225 -173.76 168.9225 -172.75 170.4375 C-172.09 170.1075 -171.43 169.7775 -170.75 169.4375 C-172.07 168.7775 -173.39 168.1175 -174.75 167.4375 Z M-170.75 170.4375 C-170.42 171.0975 -170.09 171.7575 -169.75 172.4375 C-169.09 172.1075 -168.43 171.7775 -167.75 171.4375 C-168.74 171.1075 -169.73 170.7775 -170.75 170.4375 Z M74.25 170.4375 C73.92 171.0975 73.59 171.7575 73.25 172.4375 C74.24 172.1075 75.23 171.7775 76.25 171.4375 C75.59 171.1075 74.93 170.7775 74.25 170.4375 Z M-167.75 172.4375 C-164.81419231 175.62963599 -161.88986733 177.69025395 -158.1015625 179.78515625 C-157.01359375 180.39037109 -155.925625 180.99558594 -154.8046875 181.61914062 C-153.67289063 182.23982422 -152.54109375 182.86050781 -151.375 183.5 C-150.2509375 184.12455078 -149.126875 184.74910156 -147.96875 185.39257812 C-142.94115261 188.17677361 -137.903577 190.89228158 -132.75 193.4375 C-134.18756417 184.99181048 -139.94867869 179.26474831 -146.75 174.375 C-148.235 173.4159375 -148.235 173.4159375 -149.75 172.4375 C-150.74 172.9325 -150.74 172.9325 -151.75 173.4375 C-150.46034824 174.81312854 -149.12310707 176.14516393 -147.75 177.4375 C-147.09 177.4375 -146.43 177.4375 -145.75 177.4375 C-145.75 178.0975 -145.75 178.7575 -145.75 179.4375 C-144.1045622 181.12512851 -142.43711423 182.7915349 -140.75 184.4375 C-140.42 185.0975 -140.09 185.7575 -139.75 186.4375 C-156.19059153 178.40078404 -156.19059153 178.40078404 -163.9296875 173.46875 C-165.69133661 172.27319388 -165.69133661 172.27319388 -167.75 172.4375 Z M55.25 172.4375 C44.98253967 179.89875962 44.98253967 179.89875962 38.25 190.4375 C38.58 191.4275 38.91 192.4175 39.25 193.4375 C42.85708428 191.4218433 46.46009136 189.39899944 50.0625 187.375 C51.06732422 186.81361328 52.07214844 186.25222656 53.10742188 185.67382812 C59.96990848 181.81230029 66.65068389 177.733043 73.25 173.4375 C72.59 173.1075 71.93 172.7775 71.25 172.4375 C68.67905854 173.74099135 66.22720684 175.09815658 63.75 176.5625 C62.30314004 177.39896591 60.8552226 178.23360534 59.40625 179.06640625 C58.69855469 179.47391113 57.99085938 179.88141602 57.26171875 180.30126953 C53.34259394 182.51481405 49.30907883 184.49577719 45.25 186.4375 C47.33906965 182.57711564 49.60798817 179.97197389 52.9375 177.125 C53.74574219 176.42761719 54.55398438 175.73023438 55.38671875 175.01171875 C56.00160156 174.49222656 56.61648438 173.97273437 57.25 173.4375 C56.59 173.1075 55.93 172.7775 55.25 172.4375 Z M-57.75 273.4375 C-57.75 274.0975 -57.75 274.7575 -57.75 275.4375 C-58.636875 275.664375 -59.52375 275.89125 -60.4375 276.125 C-64.18380532 277.60938513 -66.08729434 279.46153485 -68.75 282.4375 C-67.85868831 286.33698866 -66.31069814 288.01398535 -63.0625 290.125 C-59.24584614 292.47312171 -56.37415322 293.11631337 -51.75 294.4375 C-51.75 287.8375 -51.75 281.2375 -51.75 274.4375 C-54.72 273.9425 -54.72 273.9425 -57.75 273.4375 Z M-42.75 274.4375 C-42.75 281.0375 -42.75 287.6375 -42.75 294.4375 C-40.8525 293.86 -38.955 293.2825 -37 292.6875 C-35.93265625 292.36265625 -34.8653125 292.0378125 -33.765625 291.703125 C-30.58074895 290.36646718 -28.92796101 289.08915466 -26.75 286.4375 C-25.83308563 283.98209933 -25.83308563 283.98209933 -26.75 281.4375 C-32.27144471 276.38596548 -34.65554354 276.2362681 -42.75 274.4375 Z M-52.75 302.4375 C-52.75 303.7575 -52.75 305.0775 -52.75 306.4375 C-53.53375 306.705625 -54.3175 306.97375 -55.125 307.25 C-58.03114923 308.28564432 -58.03114923 308.28564432 -59.75 311.4375 C-59.82387752 314.7619886 -59.44222197 316.69111885 -57.15234375 319.16015625 C-54.29429337 322.04341862 -54.29429337 322.04341862 -50.75 323.4375 C-50.72296438 320.85409616 -50.70314389 318.27097692 -50.6875 315.6875 C-50.67912109 314.95789063 -50.67074219 314.22828125 -50.66210938 313.4765625 C-50.64608316 309.95079442 -50.79707287 306.82715084 -51.75 303.4375 C-51.09 303.1075 -50.43 302.7775 -49.75 302.4375 C-50.74 302.4375 -51.73 302.4375 -52.75 302.4375 Z M-42.75 305.4375 C-43.69137255 308.26161765 -43.86725382 309.96668032 -43.84765625 312.88671875 C-43.84443359 313.73427734 -43.84121094 314.58183594 -43.83789062 315.45507812 C-43.82951172 316.33615234 -43.82113281 317.21722656 -43.8125 318.125 C-43.80798828 319.01767578 -43.80347656 319.91035156 -43.79882812 320.83007812 C-43.78704983 323.03261987 -43.77060164 325.23502599 -43.75 327.4375 C-43.42 327.4375 -43.09 327.4375 -42.75 327.4375 C-42.70875 326.715625 -42.6675 325.99375 -42.625 325.25 C-41.75 322.4375 -41.75 322.4375 -38.75 320.0625 C-35.40798518 317.65574504 -35.40798518 317.65574504 -34.875 313.625 C-34.83375 312.573125 -34.7925 311.52125 -34.75 310.4375 C-35.8937636 309.60132818 -37.04007139 308.76863541 -38.1875 307.9375 C-38.82558594 307.4734375 -39.46367187 307.009375 -40.12109375 306.53125 C-41.56136032 305.34459103 -41.56136032 305.34459103 -42.75 305.4375 Z M-51.75 331.4375 C-52.03875 332.324375 -52.3275 333.21125 -52.625 334.125 C-53.58148748 336.94132424 -54.61798946 339.68833156 -55.75 342.4375 C-54.43799596 343.79182675 -53.10368596 345.12483482 -51.75 346.4375 C-51.42 346.4375 -51.09 346.4375 -50.75 346.4375 C-50.42 341.4875 -50.09 336.5375 -49.75 331.4375 C-50.41 331.4375 -51.07 331.4375 -51.75 331.4375 Z M-43.75 336.4375 C-43.75 340.7275 -43.75 345.0175 -43.75 349.4375 C-44.74 349.9325 -44.74 349.9325 -45.75 350.4375 C-44.76 350.7675 -43.77 351.0975 -42.75 351.4375 C-42.46125 350.365 -42.1725 349.2925 -41.875 348.1875 C-41.02179891 345.34349636 -40.1863497 343.00241017 -38.75 340.4375 C-40.11323743 338.3975281 -40.11323743 338.3975281 -41.75 336.4375 C-42.41 336.4375 -43.07 336.4375 -43.75 336.4375 Z M-44.75 360.4375 C-43.75 362.4375 -43.75 362.4375 -43.75 362.4375 Z M-43.75 363.4375 C-42.75 366.4375 -42.75 366.4375 -42.75 366.4375 Z " fill="#886D56" transform="translate(383.75,113.5625)"/>
<path d="M0 0 C1.08966064 0.00684814 2.17932129 0.01369629 3.30200195 0.02075195 C23.49210237 0.41266448 46.85147634 4.60457102 62.125 18.8125 C68.48174272 25.5740353 70.66066018 33.14476845 70.515625 42.2578125 C69.54506098 53.87603471 64.6279109 63.02970983 58.44335938 72.58398438 C56.86323089 75.03822649 55.33759531 77.52414569 53.81347656 80.01342773 C52.80852242 81.65443757 51.79514126 83.29027808 50.78125 84.92578125 C49.27526705 87.31718798 49.27526705 87.31718798 48.25 89.4375 C49.013125 89.375625 49.77625 89.31375 50.5625 89.25 C53.25 89.4375 53.25 89.4375 54.85595703 90.70410156 C56.43354615 92.66572726 56.81061978 93.89741152 57.2421875 96.359375 C57.38744873 97.13063721 57.53270996 97.90189941 57.68237305 98.6965332 C57.82843994 99.51855225 57.97450684 100.34057129 58.125 101.1875 C59.58785875 108.80555677 61.56250137 115.94853321 64.19921875 123.23828125 C65.20885576 126.31223185 65.80942952 129.23731226 66.25 132.4375 C69.22 132.4375 72.19 132.4375 75.25 132.4375 C77.00334156 128.66348933 77.46407371 125.82921858 77.33984375 121.68359375 C77.31986328 120.58080078 77.29988281 119.47800781 77.27929688 118.34179688 C77.21881962 116.0578155 77.15382676 113.77394855 77.08398438 111.49023438 C76.9364985 102.71736791 77.51802129 93.99079785 82.125 86.3125 C84.49613041 84.22032611 86.17479957 83.18754889 89.25 82.4375 C92.05023355 82.63751668 93.64844031 82.96312794 95.85894775 84.70626831 C97.60794299 86.88297734 97.71012741 88.17900007 97.88183594 90.94970703 C97.97643097 92.31725632 97.97643097 92.31725632 98.07293701 93.71243286 C98.12621155 94.69678314 98.17948608 95.68113342 98.234375 96.6953125 C98.29908997 97.71293671 98.36380493 98.73056091 98.43048096 99.77902222 C98.56463717 101.9356112 98.69195751 104.0926346 98.81298828 106.25 C98.99815827 109.5298778 99.2062294 112.80767938 99.41796875 116.0859375 C99.5456422 118.18481286 99.67198632 120.28376959 99.796875 122.3828125 C99.85824646 123.3550174 99.91961792 124.32722229 99.98284912 125.32888794 C100.70386416 138.62765774 98.79986211 148.03378429 90.25 158.4375 C91.5113603 157.11490862 92.7584656 155.77871964 94 154.4375 C94.69609375 153.695 95.3921875 152.9525 96.109375 152.1875 C100.95438989 145.96324729 103.07745705 139.14871383 105.125 131.625 C108.07249147 121.37551195 111.08314746 111.68762673 120.25 105.4375 C122.73754786 104.19372607 124.47655301 104.30443765 127.25 104.3125 C128.136875 104.30992187 129.02375 104.30734375 129.9375 104.3046875 C132.25 104.4375 132.25 104.4375 134.25 105.4375 C134.13513575 107.81337624 134.00841844 110.18765171 133.875 112.5625 C133.82859375 113.56023437 133.82859375 113.56023437 133.78125 114.578125 C133.52895865 118.86707787 132.71758781 122.41758557 131.25 126.4375 C130.61019186 128.80855368 129.98606863 131.18387747 129.375 133.5625 C119.61192264 170.4900376 98.53142104 191.62270276 66.25 210.4375 C65.404375 210.99179687 64.55875 211.54609375 63.6875 212.1171875 C51.19082744 218.88621847 33.6399872 216.00545714 20.6171875 212.21484375 C13.19476854 209.87513766 6.01051951 206.84100388 -1.12231445 203.74072266 C-6.95629762 201.2668332 -11.39629006 199.64328626 -17.75 200.4375 C-19.96267985 201.31108566 -19.96267985 201.31108566 -21.5625 202.75 C-22.37654297 203.39388672 -22.37654297 203.39388672 -23.20703125 204.05078125 C-24.77803918 205.46269977 -26.27443021 206.92648109 -27.75 208.4375 C-21.51324733 190.89861179 -5.39778038 180.40029167 10.5390625 172.72265625 C11.88097656 172.08650391 11.88097656 172.08650391 13.25 171.4375 C13.04761719 170.68082031 12.84523438 169.92414063 12.63671875 169.14453125 C12.14285504 165.68748529 13.40571337 164.18404003 15.19140625 161.3046875 C19.12568061 154.3652663 19.39993501 144.73949042 17.73828125 137.078125 C17.57714844 136.53671875 17.41601562 135.9953125 17.25 135.4375 C16.46238281 135.48390625 15.67476563 135.5303125 14.86328125 135.578125 C4.61693168 135.91764901 -5.21900886 134.78709233 -13.375 128.0625 C-18.70716899 122.74155663 -20.35507521 117.66464427 -20.796875 110.234375 C-20.63515234 100.58492278 -15.41726021 94.93977706 -8.75 88.4375 C-5.66080939 85.59963006 -2.52725879 82.81890681 0.6484375 80.078125 C4.78382843 75.88064111 6.67884865 71.96272181 6.6875 66.0625 C6.44575758 59.44592045 5.00072873 55.07923759 0.1796875 50.44921875 C-4.30094817 46.73936768 -9.06706416 43.54658871 -13.9375 40.375 C-21.2247284 35.57929185 -27.16950385 31.08975179 -29.75 22.4375 C-30.48783167 17.09601437 -29.7650624 12.9600936 -26.75 8.4375 C-19.26891321 0.7782921 -10.32264205 -0.10045389 0 0 Z M41.25 118.4375 C39.8959068 120.42350337 38.56542376 122.42567543 37.25 124.4375 C36.67378906 125.06011719 36.09757812 125.68273437 35.50390625 126.32421875 C33.94299297 128.39478585 33.94299297 128.39478585 34.83203125 130.84765625 C35.23808594 131.72292969 35.64414062 132.59820312 36.0625 133.5 C38.71565913 140.04095667 39.67993012 146.49700556 37.2265625 153.2578125 C36.90429688 153.97710937 36.58203125 154.69640625 36.25 155.4375 C40.80015893 153.92078036 42.75057264 150.26858947 45.25 146.4375 C44.59 146.1075 43.93 145.7775 43.25 145.4375 C42.92 136.5275 42.59 127.6175 42.25 118.4375 C41.92 118.4375 41.59 118.4375 41.25 118.4375 Z M82.25 139.4375 C82.25 142.4075 82.25 145.3775 82.25 148.4375 C82.58 148.4375 82.91 148.4375 83.25 148.4375 C83.25 145.4675 83.25 142.4975 83.25 139.4375 C82.92 139.4375 82.59 139.4375 82.25 139.4375 Z M48.25 142.4375 C47.26 143.9225 47.26 143.9225 46.25 145.4375 C47.57 144.7775 48.89 144.1175 50.25 143.4375 C49.59 143.1075 48.93 142.7775 48.25 142.4375 Z M81.25 148.4375 C80.92 149.7575 80.59 151.0775 80.25 152.4375 C80.91 152.1075 81.57 151.7775 82.25 151.4375 C81.92 150.4475 81.59 149.4575 81.25 148.4375 Z M79.25 152.4375 C80.25 154.4375 80.25 154.4375 80.25 154.4375 Z M77.25 155.4375 C75.27 157.7475 73.29 160.0575 71.25 162.4375 C74.48475448 160.82012276 75.95572021 159.96120777 78.25 157.4375 C77.92 156.7775 77.59 156.1175 77.25 155.4375 Z M87.25 159.4375 C87.58 160.0975 87.91 160.7575 88.25 161.4375 C88.58 160.7775 88.91 160.1175 89.25 159.4375 C88.59 159.4375 87.93 159.4375 87.25 159.4375 Z M84.25 162.4375 C83.92 163.0975 83.59 163.7575 83.25 164.4375 C84.24 164.1075 85.23 163.7775 86.25 163.4375 C85.59 163.1075 84.93 162.7775 84.25 162.4375 Z M74.25 170.4375 C73.92 171.0975 73.59 171.7575 73.25 172.4375 C74.24 172.1075 75.23 171.7775 76.25 171.4375 C75.59 171.1075 74.93 170.7775 74.25 170.4375 Z M55.25 172.4375 C44.98253967 179.89875962 44.98253967 179.89875962 38.25 190.4375 C38.58 191.4275 38.91 192.4175 39.25 193.4375 C42.85708428 191.4218433 46.46009136 189.39899944 50.0625 187.375 C51.06732422 186.81361328 52.07214844 186.25222656 53.10742188 185.67382812 C59.96990848 181.81230029 66.65068389 177.733043 73.25 173.4375 C72.59 173.1075 71.93 172.7775 71.25 172.4375 C68.67905854 173.74099135 66.22720684 175.09815658 63.75 176.5625 C62.30314004 177.39896591 60.8552226 178.23360534 59.40625 179.06640625 C58.69855469 179.47391113 57.99085938 179.88141602 57.26171875 180.30126953 C53.34259394 182.51481405 49.30907883 184.49577719 45.25 186.4375 C47.33906965 182.57711564 49.60798817 179.97197389 52.9375 177.125 C53.74574219 176.42761719 54.55398438 175.73023438 55.38671875 175.01171875 C56.00160156 174.49222656 56.61648438 173.97273437 57.25 173.4375 C56.59 173.1075 55.93 172.7775 55.25 172.4375 Z " fill="#886D55" transform="translate(383.75,113.5625)"/>
<path d="M0 0 C3.1875 2.125 3.1875 2.125 5 5 C5.58122986 8.56003292 5.43296709 10.25214775 3.625 13.375 C3.08875 13.91125 2.5525 14.4475 2 15 C1.34 15 0.68 15 0 15 C0.495 22.92 0.495 22.92 1 31 C3.31 30.67 5.62 30.34 8 30 C9.63002843 27.87146994 9.63002843 27.87146994 11 25 C14.69305441 20.21516858 18.50479182 15.69153054 24 13 C31.97538145 11.99493443 38.25289328 15.19412537 45.5 18.25 C68.99746304 27.95985612 68.99746304 27.95985612 94 27 C95.41534778 26.93543121 96.83337689 26.91388961 98.25 26.9375 C100.10625 26.9684375 100.10625 26.9684375 102 27 C102 29.1875 102 29.1875 101 32 C96.00079463 36.60386005 90.63419857 37.83107365 84 38 C83.67 38.99 83.34 39.98 83 41 C77.76528314 41.75612577 73.22745859 42.2063366 68 41 C67.71125 41.639375 67.4225 42.27875 67.125 42.9375 C66 45 66 45 64 46 C62.28766312 45.9129796 60.57824594 45.75902838 58.875 45.5625 C57.96492187 45.46066406 57.05484375 45.35882813 56.1171875 45.25390625 C55.41851562 45.17011719 54.71984375 45.08632813 54 45 C53.67 45.99 53.34 46.98 53 48 C50.39080172 49.30459914 48.41057385 49.1326594 45.5 49.125 C44.5203125 49.12757813 43.540625 49.13015625 42.53125 49.1328125 C40 49 40 49 38 48 C38 48.66 38 49.32 38 50 C33.75873988 52.12063006 28.1555678 51.21399404 23.625 50.375 C20.77283214 49.66987117 20.77283214 49.66987117 18 52 C15.765625 52.265625 15.765625 52.265625 13.25 52.25 C12.43015625 52.25515625 11.6103125 52.2603125 10.765625 52.265625 C8 52 8 52 1 50 C0.34 59.9 -0.32 69.8 -1 80 C0.98 79.34 2.96 78.68 5 78 C7.26660156 77.63696289 7.26660156 77.63696289 9.390625 77.47265625 C10.17808105 77.4044165 10.96553711 77.33617676 11.77685547 77.26586914 C13.00106201 77.16520142 13.00106201 77.16520142 14.25 77.0625 C27.37974748 75.85238169 27.37974748 75.85238169 39 70 C39 69.34 39 68.68 39 68 C31.94238838 66.46573661 25.79615433 67.73461522 19 70 C13.96056114 70.40579751 9.58191774 70.36486077 5 68 C5.125 65.75 5.125 65.75 6 63 C13.43015717 56.90970724 22.09050786 58.51728122 31.1015625 59.35546875 C44.95380435 60.95380435 44.95380435 60.95380435 49 65 C49.39893717 68.51064709 49.36717554 70.41457981 47.46875 73.44140625 C44.36737927 76.65564332 41.18772378 78.29265715 37.1875 80.1875 C36.50107422 80.52974609 35.81464844 80.87199219 35.10742188 81.22460938 C30.81173537 83.31758813 26.62967757 84.81988611 22 86 C22.804375 86.804375 23.60875 87.60875 24.4375 88.4375 C28 92 28 92 28.3125 95.1875 C27.93202647 99.82927705 27.05639536 101.49632727 24 105 C19.06387868 108.90696861 13.86225965 111.75487928 8 114 C8.94875 114.7425 9.8975 115.485 10.875 116.25 C13.4211344 118.24262692 14.82789938 119.96499548 16 123 C16.4493862 127.19427123 15.81264051 130.72112607 13.54296875 134.29296875 C10.48485783 137.95070926 7.78430353 140.84016884 3 142 C3 142.66 3 143.32 3 144 C3.8971875 144.4021875 3.8971875 144.4021875 4.8125 144.8125 C7.96225077 146.5223647 9.56206642 147.87388508 10.875 151.25 C11.04645734 155.02206141 10.00832958 157.87355785 8 161 C6.10660965 162.91741814 4.18547167 164.39732078 2 166 C2.515625 166.94875 3.03125 167.8975 3.5625 168.875 C5.59585058 173.64853255 5.21831855 178.02860618 4 183 C2.89730769 185.47482076 1.81577163 186.91720313 0 189 C-0.99 189.33 -1.98 189.66 -3 190 C-2.67 190.99 -2.34 191.98 -2 193 C-1.34 193.33 -0.68 193.66 0 194 C0 194.66 0 195.32 0 196 C-0.99 196 -1.98 196 -3 196 C-3 197.65 -3 199.3 -3 201 C-4.98 201.99 -4.98 201.99 -7 203 C-9.1008146 199.58617627 -9.17214593 196.95935641 -9 193 C-9 190.00789239 -10.90244202 188.74305683 -12.75390625 186.56640625 C-15.84074379 182.68608696 -16.37207515 178.91669114 -16.26953125 174.00390625 C-15.86079855 170.96506747 -14.56085134 168.60141889 -13 166 C-13.48210937 165.64808594 -13.96421875 165.29617188 -14.4609375 164.93359375 C-18.9450595 161.42865758 -21.24934514 158.89800251 -22 153 C-21.06384213 148.97452118 -19.13620694 146.6461746 -16 144 C-15.34 144 -14.68 144 -14 144 C-14 143.34 -14 142.68 -14 142 C-14.680625 141.835 -15.36125 141.67 -16.0625 141.5 C-20.75155797 139.10558742 -24.63589869 134.72820261 -27 130 C-27.37838031 124.98646089 -27.13135639 121.99517885 -24 118 C-22.35006476 116.64601727 -20.6850704 115.30999745 -19 114 C-19.79664063 113.62488281 -20.59328125 113.24976563 -21.4140625 112.86328125 C-34.70334928 106.44497608 -34.70334928 106.44497608 -39 100 C-39.57609682 94.89742814 -39.57609682 94.89742814 -39 92 C-36.5625 89.0625 -36.5625 89.0625 -34 87 C-33.67 86.67 -33.34 86.34 -33 86 C-33.89460938 85.70867187 -34.78921875 85.41734375 -35.7109375 85.1171875 C-55.32097036 78.46901005 -55.32097036 78.46901005 -60 71 C-60.4375 67.9375 -60.4375 67.9375 -60 65 C-55.71602591 60.00203023 -47.13264437 59.67863202 -40.91796875 59.16796875 C-37.36085787 58.96320869 -33.81189147 58.78867028 -30.25 58.6875 C-28.40148437 58.63142578 -28.40148437 58.63142578 -26.515625 58.57421875 C-22.33609473 59.08040631 -20.22147883 60.33478253 -17 63 C-16.125 65.75 -16.125 65.75 -16 68 C-20.53348856 70.33986506 -25.00345001 70.58179007 -30 70 C-31.11955078 69.51660156 -31.11955078 69.51660156 -32.26171875 69.0234375 C-35.94308353 67.64752085 -39.41230768 67.54230047 -43.3125 67.375 C-44.05306641 67.33632813 -44.79363281 67.29765625 -45.55664062 67.2578125 C-47.37071309 67.16418295 -49.18532116 67.08103149 -51 67 C-51 68.32 -51 69.64 -51 71 C-37.44026796 75.63776111 -25.27406353 77.55393551 -11 78 C-11.33 68.76 -11.66 59.52 -12 50 C-14.31 50.66 -16.62 51.32 -19 52 C-21.765625 52.265625 -21.765625 52.265625 -24.25 52.25 C-25.08015625 52.25515625 -25.9103125 52.2603125 -26.765625 52.265625 C-29 52 -29 52 -32 50 C-34.00720923 50.28674418 -36.00630969 50.63079809 -38 51 C-39.53975957 51.09890817 -41.08231942 51.15958966 -42.625 51.1875 C-43.72714844 51.20876953 -43.72714844 51.20876953 -44.8515625 51.23046875 C-47 51 -47 51 -48.92578125 49.98828125 C-51.61194186 48.70843448 -53.60659143 48.87130738 -56.5625 49 C-61.66751592 49.22165605 -61.66751592 49.22165605 -65 47 C-65 46.34 -65 45.68 -65 45 C-65.99 45.33 -66.98 45.66 -68 46 C-74.20058565 46.45095168 -74.20058565 46.45095168 -77.4375 44.625 C-79 43 -79 43 -79 41 C-79.73605469 41.09539062 -80.47210938 41.19078125 -81.23046875 41.2890625 C-82.20628906 41.39992188 -83.18210937 41.51078125 -84.1875 41.625 C-85.15042969 41.74101562 -86.11335938 41.85703125 -87.10546875 41.9765625 C-90.29446548 42.00238434 -92.12625048 41.32024531 -95 40 C-96.43498057 39.55430586 -97.87247382 39.116612 -99.3125 38.6875 C-103.94946597 37.14184468 -108.29029337 35.2459933 -112 32 C-113 29.1875 -113 29.1875 -113 27 C-111.7625 26.979375 -110.525 26.95875 -109.25 26.9375 C-108.55390625 26.92589844 -107.8578125 26.91429687 -107.140625 26.90234375 C-105 27 -105 27 -103.15625 27.46875 C-86.75820696 31.50884756 -70.64667295 23.85595785 -55.70703125 17.91015625 C-54.89669434 17.58797119 -54.08635742 17.26578613 -53.25146484 16.93383789 C-51.76004886 16.33195288 -50.2741034 15.71623804 -48.79541016 15.08374023 C-43.65125002 12.9584914 -39.06292423 11.86770944 -33.70703125 13.84765625 C-28.78537546 17.0036046 -26.60905674 19.78188652 -24 25 C-23.01769502 26.0173873 -22.02530403 27.02596117 -21 28 C-21 28.66 -21 29.32 -21 30 C-18.03 30.33 -15.06 30.66 -12 31 C-11.67 25.72 -11.34 20.44 -11 15 C-12.32 14.34 -13.64 13.68 -15 13 C-16 12 -16 12 -16.375 8.75 C-16 5 -16 5 -14.1875 2.0625 C-9.53838583 -0.94575034 -5.38794756 -1.00165742 0 0 Z M-16 87 C-16 87.66 -16 88.32 -16 89 C-16.886875 89.226875 -17.77375 89.45375 -18.6875 89.6875 C-22.43380532 91.17188513 -24.33729434 93.02403485 -27 96 C-26.10868831 99.89948866 -24.56069814 101.57648535 -21.3125 103.6875 C-17.49584614 106.03562171 -14.62415322 106.67881337 -10 108 C-10 101.4 -10 94.8 -10 88 C-12.97 87.505 -12.97 87.505 -16 87 Z M-1 88 C-1 94.6 -1 101.2 -1 108 C0.8975 107.4225 2.795 106.845 4.75 106.25 C5.81734375 105.92515625 6.8846875 105.6003125 7.984375 105.265625 C11.16925105 103.92896718 12.82203899 102.65165466 15 100 C15.91691437 97.54459933 15.91691437 97.54459933 15 95 C9.47855529 89.94846548 7.09445646 89.7987681 -1 88 Z M-11 116 C-11 117.32 -11 118.64 -11 120 C-11.78375 120.268125 -12.5675 120.53625 -13.375 120.8125 C-16.28114923 121.84814432 -16.28114923 121.84814432 -18 125 C-18.07387752 128.3244886 -17.69222197 130.25361885 -15.40234375 132.72265625 C-12.54429337 135.60591862 -12.54429337 135.60591862 -9 137 C-8.97296438 134.41659616 -8.95314389 131.83347692 -8.9375 129.25 C-8.92912109 128.52039063 -8.92074219 127.79078125 -8.91210938 127.0390625 C-8.89608316 123.51329442 -9.04707287 120.38965084 -10 117 C-9.34 116.67 -8.68 116.34 -8 116 C-8.99 116 -9.98 116 -11 116 Z M-1 119 C-1.94137255 121.82411765 -2.11725382 123.52918032 -2.09765625 126.44921875 C-2.09443359 127.29677734 -2.09121094 128.14433594 -2.08789062 129.01757812 C-2.07951172 129.89865234 -2.07113281 130.77972656 -2.0625 131.6875 C-2.05798828 132.58017578 -2.05347656 133.47285156 -2.04882812 134.39257812 C-2.03704983 136.59511987 -2.02060164 138.79752599 -2 141 C-1.67 141 -1.34 141 -1 141 C-0.95875 140.278125 -0.9175 139.55625 -0.875 138.8125 C0 136 0 136 3 133.625 C6.34201482 131.21824504 6.34201482 131.21824504 6.875 127.1875 C6.91625 126.135625 6.9575 125.08375 7 124 C5.8562364 123.16382818 4.70992861 122.33113541 3.5625 121.5 C2.92441406 121.0359375 2.28632813 120.571875 1.62890625 120.09375 C0.18863968 118.90709103 0.18863968 118.90709103 -1 119 Z M-10 145 C-10.28875 145.886875 -10.5775 146.77375 -10.875 147.6875 C-11.83148748 150.50382424 -12.86798946 153.25083156 -14 156 C-12.68799596 157.35432675 -11.35368596 158.68733482 -10 160 C-9.67 160 -9.34 160 -9 160 C-8.67 155.05 -8.34 150.1 -8 145 C-8.66 145 -9.32 145 -10 145 Z M-2 150 C-2 154.29 -2 158.58 -2 163 C-2.99 163.495 -2.99 163.495 -4 164 C-3.01 164.33 -2.02 164.66 -1 165 C-0.71125 163.9275 -0.4225 162.855 -0.125 161.75 C0.72820109 158.90599636 1.5636503 156.56491017 3 154 C1.63676257 151.9600281 1.63676257 151.9600281 0 150 C-0.66 150 -1.32 150 -2 150 Z M-3 174 C-2 176 -2 176 -2 176 Z M-2 177 C-1 180 -1 180 -1 180 Z " fill="#4BAEF3" transform="translate(342,300)"/>
<path d="M0 0 C1.08966064 0.00684814 2.17932129 0.01369629 3.30200195 0.02075195 C23.49210237 0.41266448 46.85147634 4.60457102 62.125 18.8125 C68.48174272 25.5740353 70.66066018 33.14476845 70.515625 42.2578125 C69.54426763 53.88553162 64.61918986 63.04386725 58.43017578 72.60595703 C56.55182451 75.5210152 54.74948616 78.48074501 52.9375 81.4375 C52.28910156 82.49195313 51.64070313 83.54640625 50.97265625 84.6328125 C50.40417969 85.55835938 49.83570313 86.48390625 49.25 87.4375 C48.81558594 88.13617188 48.38117188 88.83484375 47.93359375 89.5546875 C43.5178312 96.88713453 42.91812008 103.90389857 42.859375 112.20898438 C42.66446745 118.22404806 40.84296735 121.78437099 36.56640625 126.16015625 C26.96257067 133.49671662 16.29744716 136.9632221 4.25 135.4375 C-5.70727122 133.50735621 -12.79701357 130.04819041 -18.6875 121.6875 C-20.963194 114.72655364 -21.74668419 107.6003731 -19.00390625 100.67578125 C-14.3726544 92.40878028 -6.44148938 86.19707998 0.6484375 80.078125 C4.78382843 75.88064111 6.67884865 71.96272181 6.6875 66.0625 C6.44575758 59.44592045 5.00072873 55.07923759 0.1796875 50.44921875 C-4.30094817 46.73936768 -9.06706416 43.54658871 -13.9375 40.375 C-21.2247284 35.57929185 -27.16950385 31.08975179 -29.75 22.4375 C-30.48783167 17.09601437 -29.7650624 12.9600936 -26.75 8.4375 C-19.26891321 0.7782921 -10.32264205 -0.10045389 0 0 Z " fill="#46ABF3" transform="translate(383.75,113.5625)"/>
<path d="M0 0 C3.37259466 3.63885213 4.31456191 6.5301557 4.5625 11.375 C4.24107739 19.02693185 0.84755663 23.48405753 -4.625 28.5625 C-7.73650732 31.15249291 -10.99607083 33.31007106 -14.4375 35.4375 C-25.39943808 42.22215938 -25.39943808 42.22215938 -31.63671875 53.06640625 C-32.77940681 59.14845559 -32.14934842 64.62816837 -29 70 C-24.99783322 74.70986701 -20.35621029 78.71952164 -15.6875 82.75 C-9.95954072 87.70513938 -5.63182761 92.9073172 -4.67578125 100.61328125 C-4.35735862 108.55188681 -6.22273973 113.58793738 -11.1875 119.6875 C-21.56210236 128.21772861 -32.00274965 128.98816304 -45 128 C-53.81191889 126.46207076 -59.49409478 121.90611387 -65 115 C-67.86020031 110.44155575 -68.15496678 106.57107749 -68.4375 101.3125 C-69.1104121 89.32704676 -73.36034634 80.79312751 -80 71 C-84.488018 63.90603606 -88.4193672 56.5925463 -92 49 C-92.54140625 47.89398438 -93.0828125 46.78796875 -93.640625 45.6484375 C-96.83459184 37.07612419 -96.36305032 26.76075084 -92.625 18.4375 C-85.24141649 5.81451179 -72.13122344 0.9255918 -58.6875 -2.6875 C-41.084528 -7.17100081 -15.41288386 -12.84406988 0 0 Z " fill="#46ABF3" transform="translate(333,158)"/>
<path d="M0 0 C4.16945261 2.41058748 7.23357316 5.48856243 9 10 C9.94526266 17.07847855 9.28925659 23.18793042 5 29 C1.68271066 32.93605834 -1.41450753 35.24783452 -6.5625 36.0625 C-10.77795221 36.25606668 -13.48559469 35.45191068 -17 33 C-21.77391336 27.83901258 -22.35842257 23.6750982 -22.27734375 16.85546875 C-21.71423106 11.05778738 -19.28844591 6.87093395 -14.9375 3.0625 C-10.21845874 -0.2508694 -5.63926021 -1.00066475 0 0 Z " fill="#48ACF3" transform="translate(337,112)"/>
<path d="M0 0 C4.22255614 3.34583897 6.55851144 6.48890501 8.03125 11.7734375 C8.67798881 18.02220967 8.77999562 23.47348679 5.03125 28.7734375 C2.70322967 31.53796164 1.05881533 32.6196949 -2.52734375 33.15625 C-6.99789342 33.33822624 -10.22646189 33.10334333 -14.34375 31.2734375 C-18.68354507 27.14029934 -22.56451323 21.85467412 -23.171875 15.72265625 C-23.27753583 10.62452117 -22.92999966 7.11660367 -19.96875 2.7734375 C-13.87470771 -3.52544655 -7.63427046 -4.75627168 0 0 Z " fill="#47ABF2" transform="translate(367.96875,77.2265625)"/>
<path d="M0 0 C2.97 0.495 2.97 0.495 6 1 C6.33 7.6 6.66 14.2 7 21 C8.010625 19.845 9.02125 18.69 10.0625 17.5 C10.701875 16.77941406 11.34125 16.05882813 12 15.31640625 C13.31226957 13.79653153 14.58538994 12.24176864 15.8125 10.65234375 C17.45273612 8.57641991 18.97113477 6.69998525 21 5 C24.4375 5 24.4375 5 27 6 C24.58650007 15.35518546 20.75743534 24.126276 17 33 C15.35 33 13.7 33 12 33 C12.97448772 27.38900227 15.01106524 22.32521242 17 17 C13.04 21.62 9.08 26.24 5 31 C3.68 30.67 2.36 30.34 1 30 C1 23.73 1 17.46 1 11 C-0.81222494 16.21451871 -0.81222494 16.21451871 -2.58886719 21.44116211 C-3.27469303 23.3408997 -4.13580183 25.17448047 -5 27 C-7.10644531 27.72485352 -7.10644531 27.72485352 -9 28 C-10.36838617 24.29753177 -9.60826642 22.21017231 -8.1640625 18.61328125 C-7.55691406 17.0828418 -7.55691406 17.0828418 -6.9375 15.52148438 C-6.504375 14.46251953 -6.07125 13.40355469 -5.625 12.3125 C-4.98691406 10.70665039 -4.98691406 10.70665039 -4.3359375 9.06835938 C-1.17097388 1.17097388 -1.17097388 1.17097388 0 0 Z " fill="#7B634D" transform="translate(393,23)"/>
<path d="M0 0 C1.08966064 0.00684814 2.17932129 0.01369629 3.30200195 0.02075195 C23.49422682 0.41270572 47.01300422 4.58495607 62.1875 18.9375 C66.06028723 23.10257305 68.15692298 26.51390827 68.4375 32.3125 C68.3446875 33.859375 68.3446875 33.859375 68.25 35.4375 C64.44413093 30.99731941 64.44413093 30.99731941 63.41015625 28.015625 C61.97911471 24.8355327 60.31325614 23.4938826 57.5625 21.375 C56.73363281 20.72402344 55.90476562 20.07304687 55.05078125 19.40234375 C48.31950644 14.68012446 42.23481901 12.30948198 34.3125 10.25 C33.36181641 9.99025391 32.41113281 9.73050781 31.43164062 9.46289062 C21.52217683 6.81991165 12.06551786 6.17635032 1.84130859 6.08740234 C0.4469336 6.07079877 -0.94735476 6.04345015 -2.34130859 6.00537109 C-10.53375533 5.78384949 -17.38675422 5.64250065 -23.75 11.4375 C-26.7985521 14.4860521 -27.26852268 17.2004996 -27.75 21.4375 C-28.41 21.4375 -29.07 21.4375 -29.75 21.4375 C-30.06571333 16.17561115 -29.64914347 12.88285331 -26.75 8.4375 C-19.26891321 0.7782921 -10.32264205 -0.10045389 0 0 Z " fill="#3B7DAB" transform="translate(383.75,113.5625)"/>
<path d="M0 0 C2.79538178 2.14422226 4.42815213 4.85630426 6 8 C6.59877255 14.10748001 5.39166508 17.10092821 2 22 C0.06435937 24.22240221 -1.19003597 24.8644985 -4.078125 25.34765625 C-8.49467493 25.63283083 -10.40222436 25.46078539 -14 22.6875 C-17.19318379 18.39665928 -17.69873043 14.22612076 -17 9 C-15.74828656 5.66642119 -14.23835085 2.77364477 -11.13671875 0.8359375 C-7.43057592 -0.61399772 -3.89339209 -0.81893096 0 0 Z " fill="#49ACF2" transform="translate(304,120)"/>
<path d="M0 0 C3.50359028 2.25786929 5.42750825 4.17222403 7 8 C7.64095668 12.0886289 7.95574033 16.22708392 5.94921875 19.94921875 C4.18833388 22.09448556 2.49355028 23.75322486 0 25 C-3.96653508 25.25385825 -7.53864887 24.94261594 -10.92578125 22.7578125 C-14.37943661 19.31239975 -15.43588606 16.29100044 -15.6875 11.4375 C-15.4834336 7.7285931 -15.00450789 5.3065801 -12.6875 2.375 C-8.33894668 -1.46790758 -5.51152776 -1.23534243 0 0 Z " fill="#49ACF2" transform="translate(397,83)"/>
<path d="M0 0 C3.0693814 1.69782712 5.34054091 4.14380309 7.734375 6.66015625 C8.24097656 7.18029297 8.74757813 7.70042969 9.26953125 8.23632812 C10.51471905 9.51675709 11.75049002 10.80633179 12.984375 12.09765625 C11.984375 15.09765625 11.984375 15.09765625 10.21875 16.0625 C7.984375 16.09765625 7.984375 16.09765625 5.625 14.2265625 C4.83609375 13.37964844 4.0471875 12.53273438 3.234375 11.66015625 C2.43515625 10.81582031 1.6359375 9.97148438 0.8125 9.1015625 C0.20921875 8.44027344 -0.3940625 7.77898437 -1.015625 7.09765625 C-3.325625 7.75765625 -5.635625 8.41765625 -8.015625 9.09765625 C-7.52191406 9.62875 -7.02820313 10.15984375 -6.51953125 10.70703125 C-5.55853516 11.76664063 -5.55853516 11.76664063 -4.578125 12.84765625 C-3.94003906 13.54375 -3.30195312 14.23984375 -2.64453125 14.95703125 C-1.02481175 17.0855835 -0.43295244 18.4878903 -0.015625 21.09765625 C-1.75 21.84375 -1.75 21.84375 -4.015625 22.09765625 C-6.15625 20.4453125 -6.15625 20.4453125 -8.265625 18.16015625 C-8.97203125 17.40863281 -9.6784375 16.65710938 -10.40625 15.8828125 C-10.93734375 15.29371094 -11.4684375 14.70460938 -12.015625 14.09765625 C-16.43084609 15.36740597 -16.43084609 15.36740597 -20.015625 18.09765625 C-17.045625 21.06765625 -14.075625 24.03765625 -11.015625 27.09765625 C-11.345625 28.08765625 -11.675625 29.07765625 -12.015625 30.09765625 C-14.078125 30.78515625 -14.078125 30.78515625 -16.015625 31.09765625 C-18.02171552 28.97812608 -20.02056103 26.85252184 -22.015625 24.72265625 C-22.58796875 24.119375 -23.1603125 23.51609375 -23.75 22.89453125 C-24.29140625 22.31445312 -24.8328125 21.734375 -25.390625 21.13671875 C-25.89335937 20.60256348 -26.39609375 20.0684082 -26.9140625 19.51806641 C-28.015625 18.09765625 -28.015625 18.09765625 -28.015625 16.09765625 C-26.27490234 14.83251953 -26.27490234 14.83251953 -23.8515625 13.41796875 C-22.97628906 12.90105469 -22.10101563 12.38414063 -21.19921875 11.8515625 C-20.27238281 11.31402344 -19.34554688 10.77648437 -18.390625 10.22265625 C-16.58515249 9.16409819 -14.78044634 8.1042318 -12.9765625 7.04296875 C-11.68637207 6.29128418 -11.68637207 6.29128418 -10.37011719 5.52441406 C-8.37060675 4.31276547 -6.50149931 3.03148449 -4.6171875 1.65234375 C-2.015625 0.09765625 -2.015625 0.09765625 0 0 Z " fill="#7B644E" transform="translate(520.015625,85.90234375)"/>
<path d="M0 0 C4.14344799 4.79767662 4.41859743 7.93033732 4 14 C2.88317206 11.84611755 1.93932258 9.81330025 1.1875 7.5 C-0.65496461 3.62112713 -3.0740848 1.77375009 -7.05639648 0.17382812 C-13.80837305 -2.00633151 -19.99472237 -2.46901112 -27.0625 -2.375 C-28.70351685 -2.36194824 -28.70351685 -2.36194824 -30.37768555 -2.34863281 C-49.07864382 -2.0136329 -68.99852704 1.91785977 -84.375 13.25 C-89.01438437 18.11030744 -92.06069741 23.99661311 -95 30 C-94.73264474 22.78140798 -92.55148677 17.63560074 -88 12 C-69.8973861 -4.73031897 -21.21564475 -17.67970396 0 0 Z " fill="#3C7BA7" transform="translate(333,158)"/>
<path d="M0 0 C23.6 7.6 23.6 7.6 29 13 C29.35688621 16.78299385 29.52053657 19.15412807 27.5 22.4375 C23.86353539 24.71029038 21.24217465 24.28281164 17 24 C17 23.01 17 22.02 17 21 C18.98 20.34 20.96 19.68 23 19 C23.33 17.35 23.66 15.7 24 14 C22.68 13.67 21.36 13.34 20 13 C19.896875 13.78375 19.79375 14.5675 19.6875 15.375 C19 18 19 18 16 20 C9.24066971 21.03250871 3.61883922 19.87998367 -2 16 C-4.51367934 13.85614935 -4.94875449 13.4099641 -5.375 10 C-4.95407456 6.63259644 -4.4905471 6.10738601 -2 4 C-1.30387557 2.68180692 -0.63341416 1.34944756 0 0 Z M1 7 C0.01 8.485 0.01 8.485 -1 10 C2.47736026 13.78034623 2.47736026 13.78034623 7 16 C9.33299825 16.03954234 11.66708189 16.04401732 14 16 C14.33 14.35 14.66 12.7 15 11 C10.38002183 7.33587938 6.92326789 6.56921688 1 7 Z " fill="#79624C" transform="translate(137,118)"/>
<path d="M0 0 C1.65 0 3.3 0 5 0 C5 4.62 5 9.24 5 14 C8.3 14 11.6 14 15 14 C15 9.71 15 5.42 15 1 C16.65 1 18.3 1 20 1 C20 5.29 20 9.58 20 14 C23.3 14 26.6 14 30 14 C30.33 9.38 30.66 4.76 31 0 C32.65 0 34.3 0 36 0 C36 5.94 36 11.88 36 18 C31.837332 18.0230406 27.67488814 18.04292852 23.51220703 18.05493164 C22.09813687 18.0599392 20.68407184 18.06674718 19.27001953 18.07543945 C17.22947927 18.08766256 15.18900788 18.0932642 13.1484375 18.09765625 C11.31031494 18.10551147 11.31031494 18.10551147 9.43505859 18.11352539 C6 18 6 18 0 17 C0 11.39 0 5.78 0 0 Z " fill="#775F48" transform="translate(99,195)"/>
<path d="M0 0 C7.26 0 14.52 0 22 0 C22 1.32 22 2.64 22 4 C16.39 4 10.78 4 5 4 C5 6.64 5 9.28 5 12 C12.92 11.505 12.92 11.505 21 11 C21 12.65 21 14.3 21 16 C15.72 16 10.44 16 5 16 C5 18.64 5 21.28 5 24 C10.94 24 16.88 24 23 24 C23 25.32 23 26.64 23 28 C15.74 28 8.48 28 1 28 C-0.05834215 18.60721345 -0.07555196 9.44399456 0 0 Z " fill="#775E47" transform="translate(323,18)"/>
<path d="M0 0 C3.67788916 2.5285488 4.75814633 4.28716814 6.1875 8.5 C6 12 6 12 3.4375 14.75 C0.46951915 16.85608477 -2.6843345 18.50005608 -6 20 C-4.35 22.64 -2.7 25.28 -1 28 C-1.99 28.99 -2.98 29.98 -4 31 C-4.66 31 -5.32 31 -6 31 C-7.06567383 29.58227539 -7.06567383 29.58227539 -8.20703125 27.59765625 C-8.62678223 26.87570068 -9.0465332 26.15374512 -9.47900391 25.40991211 C-9.91905762 24.63526611 -10.35911133 23.86062012 -10.8125 23.0625 C-11.26028809 22.28720947 -11.70807617 21.51191895 -12.16943359 20.71313477 C-15.16856889 15.50637842 -18.12267462 10.27509652 -21 5 C-6.82364643 -1.71637732 -6.82364643 -1.71637732 0 0 Z M-14 7 C-12.35 9.64 -10.7 12.28 -9 15 C-7.72125 14.566875 -6.4425 14.13375 -5.125 13.6875 C-4.40570313 13.44386719 -3.68640625 13.20023438 -2.9453125 12.94921875 C-0.66005095 12.03664453 -0.66005095 12.03664453 1 9 C0.36020151 6.96758273 0.36020151 6.96758273 -1 5 C-5.75736573 2.90116218 -9.51435521 5.09930305 -14 7 Z " fill="#7A624C" transform="translate(245,35)"/>
<path d="M0 0 C2.53945284 2.20531431 3.78841693 3.81038496 4.3828125 7.15234375 C4.58816105 11.26615978 4.34596218 13.44646052 2.125 17 C-0.3964976 19.37317421 -1.37231243 19.93025694 -4.8125 20.3125 C-8.80093862 19.92147661 -10.22786279 18.84914102 -13 16 C-15.21363604 12.63142341 -15.06492088 10.20996562 -14.375 6.375 C-13.61873232 3.43775392 -13.20560273 2.21223507 -11.0625 0 C-6.57470247 -2.17590183 -4.54544546 -2.04081225 0 0 Z " fill="#4AACF1" transform="translate(279,128)"/>
<path d="M0 0 C3.48751265 3.10843518 5.29927524 5.28603896 5.625 10 C5.29927524 14.71396104 3.48751265 16.89156482 0 20 C-3.58669142 21.27028655 -5.17836889 21.34393861 -8.6875 19.875 C-11.42460469 17.65572593 -12.7079598 16.30188052 -14 13 C-14.19966219 8.5355534 -13.83632897 5.11510529 -11.125 1.5 C-7.21774119 -1.25806504 -4.50101712 -1.35030514 0 0 Z " fill="#48A9EE" transform="translate(422,90)"/>
<path d="M0 0 C2.71369363 3.22601337 4.96552094 6.48292141 5.0625 10.75 C3.07171357 14.96578303 0.47603736 16.97323773 -3.75 18.75 C-9.05046125 20.54643193 -13.68113117 20.91788558 -19 18.8125 C-21 17 -21 17 -21.3125 14.3125 C-21.209375 13.549375 -21.10625 12.78625 -21 12 C-22.0725 12.495 -23.145 12.99 -24.25 13.5 C-27.25416808 14.88653911 -28.45934895 15 -32 15 C-32.33 14.01 -32.66 13.02 -33 12 C-25.70419214 8.83993951 -18.32912055 5.94977263 -10.875 3.1875 C-10.03348389 2.87353271 -9.19196777 2.55956543 -8.32495117 2.23608398 C-7.53451416 1.94548096 -6.74407715 1.65487793 -5.9296875 1.35546875 C-5.22054199 1.09403076 -4.51139648 0.83259277 -3.78076172 0.56323242 C-2 0 -2 0 0 0 Z M-16 10 C-17.22292585 11.96323357 -17.22292585 11.96323357 -17 14 C-15.23996634 16.20235844 -15.23996634 16.20235844 -13.046875 16.1171875 C-7.58168248 15.5409257 -4.31262277 14.4279822 0 11 C-0.33 9.68 -0.66 8.36 -1 7 C-6.91125786 6.68888117 -10.81186409 7.03535091 -16 10 Z " fill="#7B634D" transform="translate(541,124)"/>
<path d="M0 0 C3.0625 1.125 3.0625 1.125 5 3 C5.66838999 8.22419759 3.92569997 11.8888599 1.5 16.375 C1.16613281 17.01566406 0.83226562 17.65632813 0.48828125 18.31640625 C-0.33026451 19.88333671 -1.16364513 21.44250241 -2 23 C-3.65 22.67 -5.3 22.34 -7 22 C-7 21.34 -7 20.68 -7 20 C-8.2375 20.0825 -9.475 20.165 -10.75 20.25 C-13.90861045 20.24438968 -14.82759424 20.1135355 -17.5625 18.3125 C-19 16 -19 16 -18.9375 13.4375 C-17.91476053 10.77837738 -17.34010151 9.61386311 -15 8 C-9.69183676 6.35699709 -5.20496494 7.60044276 0 9 C0 7.68 0 6.36 0 5 C-5.08303686 4.88679144 -5.08303686 4.88679144 -10 6 C-10.66 5.67 -11.32 5.34 -12 5 C-11.625 3.0625 -11.625 3.0625 -11 1 C-7.54449426 -0.72775287 -3.78493716 -0.3523907 0 0 Z M-13 12 C-13.33 12.99 -13.66 13.98 -14 15 C-11.17431454 17.32038095 -11.17431454 17.32038095 -7.9375 16.8125 C-4.70259047 16.26245502 -4.70259047 16.26245502 -3 13 C-5.28705831 11.85647084 -6.59264762 11.89665561 -9.125 11.9375 C-11.043125 11.9684375 -11.043125 11.9684375 -13 12 Z " fill="#79614B" transform="translate(433,41)"/>
<path d="M0 0 C3.14778683 1.06113253 6.04791061 2.48558326 9 4 C10.16208984 4.57234375 10.16208984 4.57234375 11.34765625 5.15625 C13.2387667 6.0901317 15.12042021 7.04312301 17 8 C16.67 8.99 16.34 9.98 16 11 C14.68 11 13.36 11 12 11 C12.103125 11.7425 12.20625 12.485 12.3125 13.25 C12 16 12 16 9.9375 18.375 C7 20 7 20 3.4375 20 C-0.29329266 18.9146785 -1.88670311 18.25799937 -4 15 C-3.82942292 10.99143865 -2.61032594 7.65007213 -1 4 C-2.98 4.66 -4.96 5.32 -7 6 C-6.67 7.98 -6.34 9.96 -6 12 C-7.32 12.33 -8.64 12.66 -10 13 C-12.09845357 10.73367014 -13.01618762 9.64750486 -12.9375 6.5 C-10.50777524 0.02073398 -6.47962375 -0.88609642 0 0 Z M4 7 C2.37249963 9.32323453 2.37249963 9.32323453 1 12 C1.33 12.99 1.66 13.98 2 15 C2.99 15.33 3.98 15.66 5 16 C5.99 15.34 6.98 14.68 8 14 C7.72965366 11.56282742 7.72965366 11.56282742 7 9 C6.01 8.34 5.02 7.68 4 7 Z " fill="#7A624C" transform="translate(156,104)"/>
<path d="M0 0 C6.32760267 1.43266476 6.32760267 1.43266476 9 3.6875 C10.48969554 7.13242094 9.9891855 9.43893218 9 13 C6.10713104 14.93962902 3.44251776 15.34027287 0.015625 15.6328125 C-0.91894531 15.71660156 -1.85351562 15.80039063 -2.81640625 15.88671875 C-3.78449219 15.96535156 -4.75257813 16.04398438 -5.75 16.125 C-7.22533203 16.25455078 -7.22533203 16.25455078 -8.73046875 16.38671875 C-11.15311603 16.59840638 -13.57615667 16.80256279 -16 17 C-15.95875 16.236875 -15.9175 15.47375 -15.875 14.6875 C-15.77919176 11.77281584 -15.77919176 11.77281584 -18 9 C-17.8125 5.9375 -17.8125 5.9375 -17 3 C-13.00349112 0.33566075 -9.69932349 0.1672085 -5 1 C-1.63428754 3.94499841 -0.50337724 6.59544915 0 11 C1.32 10.67 2.64 10.34 4 10 C4 8.68 4 7.36 4 6 C2.68 5.34 1.36 4.68 0 4 C0 2.68 0 1.36 0 0 Z M-12 5 C-12.33 6.32 -12.66 7.64 -13 9 C-9.93882432 11.62386487 -9.26826873 12 -5 12 C-5.57452746 8.06924356 -5.57452746 8.06924356 -8 5 C-9.32 5 -10.64 5 -12 5 Z " fill="#7A624C" transform="translate(555,182)"/>
<path d="M0 0 C3.70928971 0.90558831 5.43137067 2.66905393 8 5.48828125 C8.33 7.13828125 8.66 8.78828125 9 10.48828125 C2.565 12.46828125 2.565 12.46828125 -4 14.48828125 C-4 15.14828125 -4 15.80828125 -4 16.48828125 C-1.36 16.48828125 1.28 16.48828125 4 16.48828125 C4.33 15.16828125 4.66 13.84828125 5 12.48828125 C6.65 12.48828125 8.3 12.48828125 10 12.48828125 C10.35205968 15.65681835 10.28286337 17.080958 8.4375 19.73828125 C5.19213661 22.06828573 2.9825928 22.41961586 -1 22.48828125 C-4.85174864 21.20436504 -6.68629204 19.84326657 -9.375 16.80078125 C-11.52319842 12.4217614 -11.69169208 10.33012581 -11 5.48828125 C-8.06401727 1.08430715 -5.38106114 -0.35669913 0 0 Z M-4 4.48828125 C-5.8624438 6.89686839 -5.8624438 6.89686839 -7 9.48828125 C-2.545 8.99328125 -2.545 8.99328125 2 8.48828125 C2 7.49828125 2 6.50828125 2 5.48828125 C0.94945399 4.24167801 0.94945399 4.24167801 -1.375 4.11328125 C-2.674375 4.29890625 -2.674375 4.29890625 -4 4.48828125 Z " fill="#7B644E" transform="translate(277,31.51171875)"/>
<path d="M0 0 C0.88336837 2.4667645 1.1312406 3.63859372 0.22265625 6.140625 C-0.35162109 7.18476563 -0.35162109 7.18476563 -0.9375 8.25 C-1.31777344 8.95640625 -1.69804687 9.6628125 -2.08984375 10.390625 C-2.39019531 10.92171875 -2.69054687 11.4528125 -3 12 C0.465 11.505 0.465 11.505 4 11 C3.835 10.4225 3.67 9.845 3.5 9.25 C3 7 3 7 3 3 C3.66 2.67 4.32 2.34 5 2 C7.5 3.625 7.5 3.625 10 6 C10.5625 9 10.5625 9 10 12 C7.75060497 14.77425387 5.78605231 16.76966344 2.15234375 17.23828125 C-4.87436737 17.47374423 -10.77905351 15.8420116 -16.125 11.125 C-17.40185673 8.02406223 -17.00902329 6.16160631 -16 3 C-11.3537227 -1.81221578 -6.16569615 -1.08806403 0 0 Z M-10.1875 3.9375 C-10.785625 4.288125 -11.38375 4.63875 -12 5 C-11.67 6.65 -11.34 8.3 -11 10 C-10.01 10.33 -9.02 10.66 -8 11 C-5.74114676 7.74602492 -5.74114676 7.74602492 -5 4 C-7.89186786 2.66695302 -7.89186786 2.66695302 -10.1875 3.9375 Z " fill="#7A624C" transform="translate(139,138)"/>
<path d="M0 0 C1.75390625 1.16015625 1.75390625 1.16015625 3.19140625 3.97265625 C3.75390625 7.16015625 3.75390625 7.16015625 2.75390625 9.84765625 C0.32608705 12.65482219 -1.79762354 13.82299433 -5.24609375 15.16015625 C-6.56609375 15.16015625 -7.88609375 15.16015625 -9.24609375 15.16015625 C-9.91728924 13.70390175 -10.58291182 12.24507758 -11.24609375 10.78515625 C-11.61734375 9.97304687 -11.98859375 9.1609375 -12.37109375 8.32421875 C-13.24609375 6.16015625 -13.24609375 6.16015625 -13.24609375 4.16015625 C-15.24592909 4.95133529 -15.24592909 4.95133529 -17.24609375 6.16015625 C-17.57609375 7.15015625 -17.90609375 8.14015625 -18.24609375 9.16015625 C-17.91609375 9.82015625 -17.58609375 10.48015625 -17.24609375 11.16015625 C-14.7187614 11.81570744 -14.7187614 11.81570744 -12.24609375 12.16015625 C-11.91609375 13.48015625 -11.58609375 14.80015625 -11.24609375 16.16015625 C-15.20969202 16.4710267 -17.63542431 16.48498042 -21.18359375 14.59765625 C-23.24609375 12.16015625 -23.24609375 12.16015625 -23.80859375 8.66015625 C-23.24609375 5.16015625 -23.24609375 5.16015625 -21.62109375 2.84765625 C-15.65427094 -1.39192838 -6.95038587 -2.59883993 0 0 Z M-8.24609375 3.16015625 C-7.58609375 5.47015625 -6.92609375 7.78015625 -6.24609375 10.16015625 C-4.92609375 9.83015625 -3.60609375 9.50015625 -2.24609375 9.16015625 C-1.56461145 7.26836422 -1.56461145 7.26836422 -1.24609375 5.16015625 C-3.08493256 2.87286891 -3.08493256 2.87286891 -5.87109375 3.03515625 C-7.04671875 3.09703125 -7.04671875 3.09703125 -8.24609375 3.16015625 Z " fill="#7A634D" transform="translate(551.24609375,144.83984375)"/>
<path d="M0 0 C5.75 1.875 5.75 1.875 8 3 C7.67 3.66 7.34 4.32 7 5 C6.34 5 5.68 5 5 5 C4.77695559 6.74818591 4.5721355 8.49870323 4.375 10.25 C4.25898438 11.22453125 4.14296875 12.1990625 4.0234375 13.203125 C3.99862508 16.16407363 4.35949617 17.56714398 6 20 C6.66 20.33 7.32 20.66 8 21 C8 18.36 8 15.72 8 13 C8.99 13.33 9.98 13.66 11 14 C10.79375 14.556875 10.5875 15.11375 10.375 15.6875 C9.89304789 18.659538 10.73434972 20.31979941 12 23 C11.01 23.33 10.02 23.66 9 24 C9.33 24.99 9.66 25.98 10 27 C10.66 27.33 11.32 27.66 12 28 C12 28.66 12 29.32 12 30 C11.01 30 10.02 30 9 30 C9 31.65 9 33.3 9 35 C7.68 35.66 6.36 36.32 5 37 C2.8991854 33.58617627 2.82785407 30.95935641 3 27 C3 24.00789239 1.09755798 22.74305683 -0.75390625 20.56640625 C-3.8145877 16.71896656 -4.4285467 12.88441105 -4.3359375 8.00390625 C-3.7733211 4.64783398 -2.10367931 2.62959914 0 0 Z " fill="#5AB4F4" transform="translate(330,466)"/>
<path d="M0 0 C0.99 0.66 1.98 1.32 3 2 C3 2.66 3 3.32 3 4 C-0.33333333 4.66666667 -3.66666667 5.33333333 -7 6 C-7 6.66 -7 7.32 -7 8 C-6.03578125 7.89300781 -5.0715625 7.78601563 -4.078125 7.67578125 C-2.81484375 7.55589844 -1.5515625 7.43601562 -0.25 7.3125 C1.00296875 7.18488281 2.2559375 7.05726562 3.546875 6.92578125 C7 7 7 7 9.4140625 8.265625 C11 10 11 10 11.625 13.4375 C11 17 11 17 8.375 19.4375 C4.8001385 21.09252847 2.8749789 21.50543203 -1 21 C-3.375 20 -3.375 20 -5 19 C-4.67 17.68 -4.34 16.36 -4 15 C-2.906875 15.226875 -1.81375 15.45375 -0.6875 15.6875 C2.90531273 16.40146383 2.90531273 16.40146383 4.9375 14.5625 C5.4634375 13.7890625 5.4634375 13.7890625 6 13 C3.22609489 11.7771008 3.22609489 11.7771008 1.25 12.4375 C-2.01623479 13.2540587 -4.64338758 13.35332762 -8 13 C-11 10.8125 -11 10.8125 -13 8 C-13.125 5.375 -13.125 5.375 -12 3 C-8.1787684 -0.25928577 -4.90538396 -0.45420222 0 0 Z " fill="#7D6650" transform="translate(213,57)"/>
<path d="M0 0 C2.0847728 3.21402473 2.29989814 4.53116335 1.5 8.3125 C-1.4321814 12.59492297 -4.59262771 16.36697371 -9.5 18.3125 C-14.4975122 18.76681929 -17.47983399 18.3867446 -21.5 15.3125 C-23.00889469 12.29471063 -23.00026276 10.68927363 -22.5 7.3125 C-19.94345957 3.43808098 -16.9737153 0.25718929 -13.0625 -2.25 C-8.21954037 -3.07684677 -4.11917732 -2.78044469 0 0 Z M-12.1875 3 C-14.8514606 4.62436622 -15.68179762 5.58519642 -17.5 8.3125 C-17.21725862 11.62336259 -17.21725862 11.62336259 -15.5 14.3125 C-11.74819114 14.95566723 -10.49462663 14.30898664 -7.25 12.1875 C-4.25536664 9.05674694 -3.69755601 7.55995424 -3.5 3.3125 C-6.98656851 1.19942817 -8.71504244 1.07489278 -12.1875 3 Z " fill="#79624B" transform="translate(477.5,62.6875)"/>
<path d="M0 0 C2.5 1.5 2.5 1.5 4 3 C3.67 3.99 3.34 4.98 3 6 C-0.3 5.67 -3.6 5.34 -7 5 C-7.33 5.66 -7.66 6.32 -8 7 C-6.75283203 7.16435547 -6.75283203 7.16435547 -5.48046875 7.33203125 C-3.85044922 7.56986328 -3.85044922 7.56986328 -2.1875 7.8125 C-1.10855469 7.96332031 -0.02960938 8.11414062 1.08203125 8.26953125 C4.09295159 9.02326901 5.23051077 9.49726351 7 12 C7.4375 15 7.4375 15 7 18 C4.78910172 20.19033179 3.40355308 20.94025774 0.30859375 21.3984375 C-0.63886719 21.39070313 -1.58632813 21.38296875 -2.5625 21.375 C-3.98755859 21.38660156 -3.98755859 21.38660156 -5.44140625 21.3984375 C-8 21 -8 21 -9.83984375 19.6640625 C-11 18 -11 18 -11 15 C-9.25 14.3125 -9.25 14.3125 -7 14 C-5.66666667 15 -4.33333333 16 -3 17 C-0.79199472 16.78282648 -0.79199472 16.78282648 1 16 C1 15.34 1 14.68 1 14 C-0.26457031 13.72736328 -0.26457031 13.72736328 -1.5546875 13.44921875 C-2.65039062 13.19785156 -3.74609375 12.94648437 -4.875 12.6875 C-5.96554687 12.44386719 -7.05609375 12.20023438 -8.1796875 11.94921875 C-11 11 -11 11 -13 8 C-12.875 4.9375 -12.875 4.9375 -12 2 C-8.79770477 -0.81801981 -4.04926483 -0.57253949 0 0 Z " fill="#7A634D" transform="translate(301,28)"/>
<path d="M0 0 C3 1.625 3 1.625 5 4 C5.3125 7.25 5.3125 7.25 5 10 C1.25 11.125 1.25 11.125 -1 10 C-0.67 8.35 -0.34 6.7 0 5 C-2.97 4.505 -2.97 4.505 -6 4 C-5.34 5.03125 -4.68 6.0625 -4 7.125 C-2.05462261 10.55720154 -1.27367161 13.00519384 -2 17 C-3.5 18.875 -3.5 18.875 -6 20 C-10.62484056 20.51387117 -12.88019751 20.58323046 -17 18.4375 C-19.66129695 15.19404435 -19.39253329 13.08234623 -19 9 C-15.25 7.875 -15.25 7.875 -13 9 C-13.33 10.98 -13.66 12.96 -14 15 C-12.02 15 -10.04 15 -8 15 C-8.309375 14.38125 -8.61875 13.7625 -8.9375 13.125 C-10.78879491 9.42241017 -11.34491718 7.22523549 -11 3 C-8.7656382 -1.18942837 -4.18818051 -0.72519079 0 0 Z " fill="#7B644E" transform="translate(491,72)"/>
<path d="M0 0 C10.95150399 2.6519337 10.95150399 2.6519337 13.75 6.25 C14.38423152 13.22654674 7.12526059 19.88977551 3 25 C1.68 24.67 0.36 24.34 -1 24 C-0.24758345 19.40189886 2.4951365 16.70254157 5.40625 13.21875 C6.95629121 11.0608495 7.57577243 9.59250181 8 7 C3.64438949 7.20791776 1.57279325 7.45926292 -1.65234375 10.50390625 C-2.40644531 11.51324219 -3.16054688 12.52257812 -3.9375 13.5625 C-4.70964844 14.57441406 -5.48179687 15.58632813 -6.27734375 16.62890625 C-6.84582031 17.41136719 -7.41429687 18.19382812 -8 19 C-9.65 18.67 -11.3 18.34 -13 18 C-9.56063777 11.27081302 -4.86702853 5.75099739 0 0 Z " fill="#7D6650" transform="translate(446,48)"/>
<path d="M0 0 C0 1.32 0 2.64 0 4 C-1.98 4.99 -1.98 4.99 -4 6 C-4 7.32 -4 8.64 -4 10 C-1.32580932 9.63507846 -0.2671208 9.334081 1.44921875 7.1875 C1.85785156 6.465625 2.26648438 5.74375 2.6875 5 C4.98734177 1.01265823 4.98734177 1.01265823 6 0 C8.92942542 -0.28814021 11.14948367 -0.48613457 14 0 C16.5625 2.125 16.5625 2.125 18 5 C17.85384044 8.72706873 17.65788293 10.34211707 15 13 C12.375 13.625 12.375 13.625 10 14 C9.67 12.68 9.34 11.36 9 10 C10.32 9.67 11.64 9.34 13 9 C12.67 7.68 12.34 6.36 12 5 C11.01 5 10.02 5 9 5 C8.73445312 5.56589844 8.46890625 6.13179687 8.1953125 6.71484375 C7.66550781 7.81505859 7.66550781 7.81505859 7.125 8.9375 C6.77695312 9.66839844 6.42890625 10.39929688 6.0703125 11.15234375 C5 13 5 13 3 14 C-4.06446777 14.45577211 -4.06446777 14.45577211 -7.4375 12.8125 C-9.4616569 10.464478 -9.9261179 9.10304831 -10 6 C-7.46689698 0.69254605 -5.72421503 -0.15063724 0 0 Z " fill="#7B644E" transform="translate(548,201)"/>
<path d="M0 0 C0.75152344 0.04382813 1.50304687 0.08765625 2.27734375 0.1328125 C6.49312142 0.39767811 10.59148738 0.84362342 14.75 1.625 C14.42 2.945 14.09 4.265 13.75 5.625 C6.49 5.295 -0.77 4.965 -8.25 4.625 C-7.92 5.945 -7.59 7.265 -7.25 8.625 C-0.60009036 10.08232062 5.9642064 11.07636137 12.75 11.625 C12.75 12.945 12.75 14.265 12.75 15.625 C3.61661545 15.91494872 -5.21301675 14.7991788 -14.25 13.625 C-14.16266424 12.01982903 -14.05447776 10.41578338 -13.9375 8.8125 C-13.87949219 7.91917969 -13.82148437 7.02585938 -13.76171875 6.10546875 C-13.1790429 3.28104766 -12.48914391 2.37761387 -10.25 0.625 C-7.00893096 -0.99553452 -3.53093149 -0.23737355 0 0 Z " fill="#7B644E" transform="translate(123.25,176.375)"/>
<path d="M0 0 C2.57343171 1.07918104 4.66603411 2.44402274 7 4 C7 4.66 7 5.32 7 6 C7.58265625 6.25523438 8.1653125 6.51046875 8.765625 6.7734375 C11.21388223 8.11741087 12.81743248 9.61810296 14.75 11.625 C15.36359375 12.25664063 15.9771875 12.88828125 16.609375 13.5390625 C17.06828125 14.02117187 17.5271875 14.50328125 18 15 C17.67 15.66 17.34 16.32 17 17 C15.68 17 14.36 17 13 17 C12.87625 17.928125 12.87625 17.928125 12.75 18.875 C12 21 12 21 10.3125 22.3125 C6.12175941 23.55839585 2.94546814 22.47273407 -0.875 20.5625 C-1.57625 20.046875 -2.2775 19.53125 -3 19 C-3 18.34 -3 17.68 -3 17 C-3.556875 16.773125 -4.11375 16.54625 -4.6875 16.3125 C-7.66159588 14.62449964 -9.72008865 12.53323483 -12 10 C-12 9.34 -12 8.68 -12 8 C-10.3046875 7.2265625 -10.3046875 7.2265625 -8 7 C-5.29993805 9.09410746 -3.0322841 11.46887849 -0.6328125 13.8984375 C2.33431193 16.26685433 4.26255672 16.70579893 8 17 C8.41575551 13.0722464 8.41575551 13.0722464 6.3203125 10.89453125 C5.59585938 10.20746094 4.87140625 9.52039063 4.125 8.8125 C3.40570313 8.11769531 2.68640625 7.42289062 1.9453125 6.70703125 C0.10568924 4.94709649 0.10568924 4.94709649 -2 4 C-2 3.01 -2 2.02 -2 1 C-1.34 0.67 -0.68 0.34 0 0 Z " fill="#7B634D" transform="translate(192,66)"/>
<path d="M0 0 C0.5775 0.226875 1.155 0.45375 1.75 0.6875 C1.75 3.6875 1.75 3.6875 -0.25 5.875 C-0.91 6.473125 -1.57 7.07125 -2.25 7.6875 C4.58471488 13.26201799 11.57509636 18.55867154 18.75 23.6875 C18.09 24.6775 17.43 25.6675 16.75 26.6875 C13.35730496 26.06964877 11.26548426 24.81445104 8.52734375 22.74609375 C7.74166016 22.16279297 6.95597656 21.57949219 6.14648438 20.97851562 C4.50279277 19.73954555 2.85956583 18.49995879 1.21679688 17.25976562 C0.43240234 16.67775391 -0.35199219 16.09574219 -1.16015625 15.49609375 C-1.87308838 14.95782959 -2.58602051 14.41956543 -3.32055664 13.86499023 C-5.30007275 12.42703499 -5.30007275 12.42703499 -8.25 12.6875 C-8.889375 13.203125 -9.52875 13.71875 -10.1875 14.25 C-12.25 15.6875 -12.25 15.6875 -14.5 15.375 C-15.0775 15.148125 -15.655 14.92125 -16.25 14.6875 C-16.25 11.6875 -16.25 11.6875 -14.203125 9.53125 C-13.31109375 8.7578125 -12.4190625 7.984375 -11.5 7.1875 C-10.61828125 6.4140625 -9.7365625 5.640625 -8.828125 4.84375 C-2.60422061 -0.36169731 -2.60422061 -0.36169731 0 0 Z " fill="#79614A" transform="translate(171.25,72.3125)"/>
<path d="M0 0 C2.08268593 -0.08126087 4.16628658 -0.13930839 6.25 -0.1875 C7.99023438 -0.23970703 7.99023438 -0.23970703 9.765625 -0.29296875 C13.26255272 0.02378195 14.63807909 0.43069092 17 3 C18.46404582 9.06710512 16.3883129 16.06248324 15 22 C13.68 22 12.36 22 11 22 C11 16.39 11 10.78 11 5 C9.02 5.33 7.04 5.66 5 6 C4.01 10.95 3.02 15.9 2 21 C0.68 21 -0.64 21 -2 21 C-2.24091535 13.7725395 -1.34495828 7.09705662 0 0 Z " fill="#7A634D" transform="translate(352,26)"/>
<path d="M0 0 C1.32 0.66 2.64 1.32 4 2 C2.125 6.875 2.125 6.875 1 8 C2.27875 8.0825 3.5575 8.165 4.875 8.25 C7.0546875 8.390625 7.0546875 8.390625 9 9 C10.2578125 11.046875 10.2578125 11.046875 11 13 C10.07058594 12.95617187 9.14117188 12.91234375 8.18359375 12.8671875 C0.71493858 12.70541784 0.71493858 12.70541784 -5.48828125 16.29296875 C-7.19623293 18.80008622 -8.68186629 21.26958017 -10 24 C-10.99 23.34 -11.98 22.68 -13 22 C-12.45276317 18.62537285 -11.9451 16.91765 -10 14 C-13.3 13.67 -16.6 13.34 -20 13 C-20.33 12.01 -20.66 11.02 -21 10 C-17.53777385 8.93276039 -14.35960734 8.89826514 -10.75 8.9375 C-9.67234375 8.94652344 -8.5946875 8.95554687 -7.484375 8.96484375 C-6.66453125 8.97644531 -5.8446875 8.98804687 -5 9 C-4.70351563 8.22269531 -4.40703125 7.44539063 -4.1015625 6.64453125 C-3.02186746 4.05249741 -1.76507813 2.16623225 0 0 Z " fill="#7B644D" transform="translate(527,108)"/>
<path d="M0 0 C2.75785014 3.04070657 3.86828038 5.05914557 4.4375 9.125 C3.94209383 12.38052625 3.40571923 13.76019244 1 16 C-2.17354935 17.25271685 -3.47514014 17.22493994 -6.625 15.875 C-9.36246266 13.71384527 -10.67611518 12.2361629 -12 9 C-11.93510145 5.2358841 -11.77538789 2.95432355 -9.375 0 C-5.80432997 -1.50344001 -3.67744356 -1.11636679 0 0 Z " fill="#4BADF2" transform="translate(261,137)"/>
<path d="M0 0 C2.9375 0.5625 2.9375 0.5625 5.3125 2.125 C7.57076454 5.51239681 7.49866268 7.5642159 6.9375 11.5625 C5.14187595 14.31579021 3.88495078 16.08877461 0.9375 17.5625 C-1.9375 17.9375 -1.9375 17.9375 -5.0625 17.5625 C-7.5 15.5 -7.5 15.5 -9.0625 12.5625 C-9.14086758 8.17391575 -8.50078382 6.15105256 -5.875 2.625 C-3.0625 0.5625 -3.0625 0.5625 0 0 Z " fill="#4AAAED" transform="translate(435.0625,98.4375)"/>
<path d="M0 0 C1.77174819 0.08723378 3.54247377 0.19541655 5.3125 0.3125 C6.29863281 0.37050781 7.28476562 0.42851562 8.30078125 0.48828125 C11.24384457 1.04622813 12.18182999 1.68540132 14 4 C11.36 4.66 8.72 5.32 6 6 C6 6.66 6 7.32 6 8 C4.35 8.33 2.7 8.66 1 9 C1 8.01 1 7.02 1 6 C-6.92 7.485 -6.92 7.485 -15 9 C-15 9.66 -15 10.32 -15 11 C-16.65614657 11.38218767 -18.32457024 11.71395102 -20 12 C-21 11 -21 11 -21.0625 8.4375 C-21.041875 7.633125 -21.02125 6.82875 -21 6 C-17.05688666 3.47725544 -12.79179211 3.33445161 -8.25 2.875 C-7.45722656 2.78863281 -6.66445313 2.70226562 -5.84765625 2.61328125 C-3.89916859 2.40199946 -1.94967024 2.20007533 0 2 C0 1.34 0 0.68 0 0 Z " fill="#7B644E" transform="translate(557,171)"/>
<path d="M0 0 C0.33 0 0.66 0 1 0 C1.69345878 7.58952115 1.50199507 12.82937408 -3.23046875 18.98046875 C-7.23453903 23.55023549 -11.48850922 27.57815629 -16.125 31.5 C-22.40830616 36.96745051 -25.41975259 41.81144522 -27 50 C-27.33 50 -27.66 50 -28 50 C-28.7842356 43.04353974 -27.99566881 38.72139474 -23.76953125 33.08984375 C-19.83227561 28.439884 -15.55107244 24.45629717 -10.875 20.5625 C-4.21925666 14.7709714 -1.34139683 8.6490064 0 0 Z " fill="#417FAA" transform="translate(392,176)"/>
<path d="M0 0 C1.32 0 2.64 0 4 0 C4.33 0.99 4.66 1.98 5 3 C9.95 3.99 14.9 4.98 20 6 C20.33 5.01 20.66 4.02 21 3 C22.32 3.33 23.64 3.66 25 4 C24.125 8.875 24.125 8.875 23 10 C21.32994067 9.93439053 19.66258947 9.79587725 18 9.625 C17.01 9.52703125 16.02 9.4290625 15 9.328125 C11.61902894 8.95833129 8.24510131 8.5443704 4.875 8.0859375 C2.77028119 7.87694413 2.77028119 7.87694413 0 9 C-0.66 8.67 -1.32 8.34 -2 8 C-2 7.34 -2 6.68 -2 6 C-4.97 5.505 -4.97 5.505 -8 5 C-8.33 3.68 -8.66 2.36 -9 1 C-7.700625 1.020625 -6.40125 1.04125 -5.0625 1.0625 C-3.70834367 1.08399454 -2.35243917 1.07148199 -1 1 C-0.67 0.67 -0.34 0.34 0 0 Z " fill="#7B644E" transform="translate(115,164)"/>
<path d="M0 0 C4.21609965 3.34072303 6.51500591 6.51117862 8.03125 11.7734375 C8.24355894 14.79401467 8.21620741 17.75246649 8.03125 20.7734375 C6.03125 18.7734375 6.03125 18.7734375 5.21875 14.9609375 C4.25755898 10.68208713 2.30249848 8.70917332 -0.96875 5.7734375 C-1.29875 4.7834375 -1.62875 3.7934375 -1.96875 2.7734375 C-9.311049 1.84678045 -9.311049 1.84678045 -16.06640625 4.12109375 C-19.26087425 7.6923049 -20.73122717 10.90421951 -20.96875 15.7734375 C-21.62875 15.7734375 -22.28875 15.7734375 -22.96875 15.7734375 C-23.28446333 10.51154865 -22.86789347 7.21879081 -19.96875 2.7734375 C-13.89280175 -3.54078323 -7.62001017 -4.74738729 0 0 Z " fill="#3B7BA9" transform="translate(367.96875,77.2265625)"/>
<path d="M0 0 C1.875 1.125 1.875 1.125 3 3 C3.53729721 6.60756699 3.4905232 8.30194775 1.375 11.3125 C-1.5046211 13.35854657 -3.48394503 13.85038064 -7 14 C-7.99 13.34 -8.98 12.68 -10 12 C-10.76955603 5.18393235 -10.76955603 5.18393235 -8.375 1.5 C-5.31593299 -0.43204232 -3.5572204 -0.52979878 0 0 Z " fill="#4CAAEB" transform="translate(452,110)"/>
<path d="M0 0 C6.40659341 0.6043956 6.40659341 0.6043956 8.875 2.25 C10.38463345 4.5983187 10.86663055 6.19924148 11 9 C9.9375 11.8125 9.9375 11.8125 8 14 C5.0625 14.5625 5.0625 14.5625 2 14 C-0.97548823 11.90911638 -1.85198242 10.47365624 -2.9375 7 C-3 4 -3 4 -1.5625 1.625 C-0.7890625 0.820625 -0.7890625 0.820625 0 0 Z " fill="#4DADF1" transform="translate(239,147)"/>
<path d="M0 0 C2.625 0.375 2.625 0.375 5 1 C4.67 2.65 4.34 4.3 4 6 C12.91 7.98 12.91 7.98 22 10 C22.33 11.32 22.66 12.64 23 14 C20.29085231 15.35457385 18.9930267 14.71861254 16.0625 14.0390625 C15.08539063 13.81476563 14.10828125 13.59046875 13.1015625 13.359375 C12.07804688 13.11703125 11.05453125 12.8746875 10 12.625 C8.97648437 12.39039063 7.95296875 12.15578125 6.8984375 11.9140625 C-0.70081589 10.14959206 -0.70081589 10.14959206 -3 9 C-2.25 2.25 -2.25 2.25 0 0 Z " fill="#7C654F" transform="translate(119,152)"/>
<path d="M0 0 C1.06652192 2.30368736 2.06421005 4.64018187 3 7 C2.67 7.66 2.34 8.32 2 9 C0.35 9 -1.3 9 -3 9 C-3 8.01 -3 7.02 -3 6 C-8.36219411 5.76168026 -13.19278371 6.4918824 -18.44921875 7.5625 C-21 8 -21 8 -25 8 C-25.33 7.01 -25.66 6.02 -26 5 C-22.28528034 2.78656601 -18.32097818 2.12950617 -14.125 1.375 C-13.08279297 1.17390625 -13.08279297 1.17390625 -12.01953125 0.96875 C-7.96157144 0.21982333 -4.12347359 -0.14218874 0 0 Z " fill="#7C6650" transform="translate(558,161)"/>
<path d="M0 0 C3.48859275 2.24820422 5.47402867 4.16112146 7 8 C7.1953125 10.578125 7.1953125 10.578125 7.125 13.25 C7.10695313 14.14203125 7.08890625 15.0340625 7.0703125 15.953125 C7.04710937 16.62859375 7.02390625 17.3040625 7 18 C6.34 18.33 5.68 18.66 5 19 C4.87625 17.7625 4.7525 16.525 4.625 15.25 C4.22816227 12.13041454 3.8241889 9.63493952 2 7 C-1.81518438 4.45654375 -4.53032008 4.42146105 -9 5 C-11.08333333 5.91666667 -11.08333333 5.91666667 -12 8 C-12.73041853 11.61023099 -12.73041853 11.61023099 -13 15 C-13.66 15 -14.32 15 -15 15 C-15.47676175 10.23238247 -15.83824 6.36767485 -12.6875 2.5 C-8.38538544 -1.50196704 -5.56764896 -1.24792132 0 0 Z " fill="#4081AE" transform="translate(397,83)"/>
<path d="M0 0 C4.17408805 2.41326748 7.21796975 5.48896691 9 10 C9 11.32 9 12.64 9 14 C8.34 14 7.68 14 7 14 C6.773125 13.2575 6.54625 12.515 6.3125 11.75 C4.63403076 8.23320731 3.41565605 6.92130653 0 5 C-4.9200312 4.18683959 -8.80974783 4.47099903 -13.375 6.5 C-17.82358094 10.73674376 -20.23531699 15.88253591 -21 22 C-21.33 22 -21.66 22 -22 22 C-22.45377563 15.64714117 -21.68995958 11.28104306 -18 6 C-12.894435 0.6144954 -7.29104024 -1.29376668 0 0 Z " fill="#4784AF" transform="translate(337,112)"/>
<path d="M0 0 C1.2630198 1.8945297 2.49662275 3.80931116 3.6875 5.75 C7.5053169 11.11558051 12.2074625 15.34977227 17.1875 19.625 C22.39379706 24.14784493 25.72055033 28.38959595 28 35 C28.1875 38.9375 28.1875 38.9375 28 42 C26.75548327 39.6066986 25.7415676 37.29271132 24.8125 34.75 C21.90194104 27.97790738 16.286295 23.18145577 10.875 18.375 C0.97776617 9.56239454 0.97776617 9.56239454 0.1875 3.625 C0.125625 2.42875 0.06375 1.2325 0 0 Z " fill="#4682AD" transform="translate(300,221)"/>
<path d="M0 0 C2.93116306 2.61255838 4.68102862 4.22757139 5.37890625 8.10546875 C5.4375 10.25 5.4375 10.25 5 14 C4.34 14.66 3.68 15.32 3 16 C2.896875 14.741875 2.79375 13.48375 2.6875 12.1875 C2.3611035 9.72864639 2.09847653 8.17506939 0.875 6 C-2.15343786 4.38483314 -4.64645493 4.6406916 -8 5 C-10.32045815 6.5469721 -10.85510163 7.53895974 -11.6875 10.1875 C-11.790625 10.785625 -11.89375 11.38375 -12 12 C-12.66 12 -13.32 12 -14 12 C-13.51094891 4.66423358 -13.51094891 4.66423358 -11.125 1.5625 C-7.25229556 -1.2850768 -4.5133232 -1.35399696 0 0 Z " fill="#4683AE" transform="translate(422,90)"/>
<path d="M0 0 C1.65 0 3.3 0 5 0 C6.37021794 2.76317623 7.71830176 5.53658478 9.0625 8.3125 C9.45244141 9.09818359 9.84238281 9.88386719 10.24414062 10.69335938 C10.79038086 11.8293457 10.79038086 11.8293457 11.34765625 12.98828125 C11.68804932 13.68477783 12.02844238 14.38127441 12.37915039 15.09887695 C13 17 13 17 12 20 C10.13378906 19.73413086 10.13378906 19.73413086 8 19 C6.81152344 17.35766602 6.81152344 17.35766602 5.859375 15.25390625 C5.51132812 14.49916016 5.16328125 13.74441406 4.8046875 12.96679688 C4.45664062 12.17337891 4.10859375 11.37996094 3.75 10.5625 C3.38648438 9.77294922 3.02296875 8.98339844 2.6484375 8.16992188 C0 2.33041588 0 2.33041588 0 0 Z " fill="#7D6651" transform="translate(254,37)"/>
<path d="M0 0 C0 0.33 0 0.66 0 1 C-1.65 1.33 -3.3 1.66 -5 2 C-4.34 2.66 -3.68 3.32 -3 4 C-4.98 4 -6.96 4 -9 4 C-9 4.99 -9 5.98 -9 7 C-8.34 7.33 -7.68 7.66 -7 8 C-7 8.66 -7 9.32 -7 10 C-4.03 10.495 -4.03 10.495 -1 11 C-1 11.99 -1 12.98 -1 14 C-1.66 14 -2.32 14 -3 14 C-3 13.34 -3 12.68 -3 12 C-4.2375 12.0825 -5.475 12.165 -6.75 12.25 C-9.90861045 12.24438968 -10.82759424 12.1135355 -13.5625 10.3125 C-15 8 -15 8 -14.9375 5.4375 C-13.9480987 2.86505662 -13.16907991 1.66852301 -11 0 C-6.94952424 -1.35015859 -4.2079832 -0.62084998 0 0 Z " fill="#7E6752" transform="translate(429,49)"/>
<path d="M0 0 C4.10676563 3.59341992 5.61276807 6.57875302 6 12 C5.34 12 4.68 12 4 12 C3.7525 11.236875 3.505 10.47375 3.25 9.6875 C1.83807503 6.65186132 0.94622344 5.55495126 -2 4 C-6.17937393 3.27315236 -7.6648648 3.78087314 -11.25 6.125 C-14.08761251 9.0915949 -15.0811629 11.04900049 -16 15 C-16.33 15 -16.66 15 -17 15 C-16.88192841 10.07319446 -16.74997195 6.92304239 -13.5625 3 C-9.21376997 -0.39413075 -5.43213642 -0.98510246 0 0 Z " fill="#4F8BB5" transform="translate(304,120)"/>
<path d="M0 0 C3.64443151 0.69786986 4.84639337 1.50626723 6.9375 4.5625 C7.1875 7.8125 7.1875 7.8125 6.9375 10.5625 C5.9475 10.5625 4.9575 10.5625 3.9375 10.5625 C3.6075 9.2425 3.2775 7.9225 2.9375 6.5625 C0.6275 6.5625 -1.6825 6.5625 -4.0625 6.5625 C-5.0525 8.5425 -6.0425 10.5225 -7.0625 12.5625 C-7.7225 12.5625 -8.3825 12.5625 -9.0625 12.5625 C-8.81557684 8.36480628 -8.4150648 6.03594416 -5.875 2.625 C-3.0625 0.5625 -3.0625 0.5625 0 0 Z " fill="#3D7FAD" transform="translate(435.0625,98.4375)"/>
<path d="M0 0 C2.64838695 2.98792374 3.90247045 4.87841022 4.25 8.875 C4.1675 9.57625 4.085 10.2775 4 11 C1 7.25 1 7.25 1 5 C-4.86417715 4.49955717 -4.86417715 4.49955717 -10 7 C-10.66 7.66 -11.32 8.32 -12 9 C-11.52 2.64 -11.52 2.64 -9.375 0 C-5.80432997 -1.50344001 -3.67744356 -1.11636679 0 0 Z " fill="#5086AC" transform="translate(261,137)"/>
<path d="M0 0 C2.98243333 2.82546315 3.93848126 4.18487667 4.25 8.3125 C4.1675 9.199375 4.085 10.08625 4 11 C3.34 10.01 2.68 9.02 2 8 C-0.10387764 5.14606522 -0.10387764 5.14606522 -3 3 C-6.64982715 2.58090318 -6.64982715 2.58090318 -10 4 C-12.01041003 6.93449408 -12.01041003 6.93449408 -13 10 C-13.33 10 -13.66 10 -14 10 C-14.3125 7.3125 -14.3125 7.3125 -14 4 C-9.51206253 -1.45830233 -6.56185957 -2.94614103 0 0 Z " fill="#407FAB" transform="translate(279,128)"/>
<path d="M0 0 C0 1.32 0 2.64 0 4 C-1.94982535 5.40568804 -3.95950578 6.7295036 -6 8 C-11.42565606 12.76399069 -14.86428569 18.57106974 -18 25 C-17.69666083 16.80984244 -14.68192741 10.46570684 -8.671875 4.80859375 C-2.6489899 0 -2.6489899 0 0 0 Z " fill="#4481AB" transform="translate(256,163)"/>
<path d="M0 0 C1.9375 1.1875 1.9375 1.1875 3 3 C2.6875 5.6875 2.6875 5.6875 2 8 C1.608125 7.484375 1.21625 6.96875 0.8125 6.4375 C-0.94906139 4.73461268 -0.94906139 4.73461268 -3.5625 5 C-6.24375877 5.79130224 -6.24375877 5.79130224 -7.3125 8.5625 C-7.539375 9.366875 -7.76625 10.17125 -8 11 C-8.66 11 -9.32 11 -10 11 C-10.48275862 4.72413793 -10.48275862 4.72413793 -8.375 1.5625 C-5.31881548 -0.44814771 -3.59350675 -0.53520313 0 0 Z " fill="#3B7BA7" transform="translate(452,110)"/>
<path d="M0 0 C6.94991289 0.52124347 11.94991791 3.69365765 16.5 8.8125 C18.42531116 12.90378622 18.30880348 15.52234953 18 20 C16.88317206 17.84611755 15.93932258 15.81330025 15.1875 13.5 C13.12827316 9.1647856 10.08853418 7.41076761 5.6875 5.75 C4.800625 5.5025 3.91375 5.255 3 5 C3.66 4.34 4.32 3.68 5 3 C2.525 2.01 2.525 2.01 0 1 C0 0.67 0 0.34 0 0 Z " fill="#4282AF" transform="translate(319,152)"/>
<path d="M0 0 C4.59746211 0.78070111 7.25010325 3.12125005 10.3125 6.5625 C12.21472343 9.65052504 12.3125 10.72786477 12.3125 14.5625 C11.6525 14.5625 10.9925 14.5625 10.3125 14.5625 C10.085625 13.82 9.85875 13.0775 9.625 12.3125 C7.98928839 8.88529471 6.52477896 7.58763239 3.3125 5.5625 C0.65229064 4.68892476 -1.93404397 4.12252496 -4.6875 3.5625 C-2.6875 0.5625 -2.6875 0.5625 0 0 Z " fill="#4483AF" transform="translate(333.6875,111.4375)"/>
<path d="M0 0 C3.88539226 7.36577356 2.28001563 14.95672965 0 22.6875 C-0.65230403 24.79616338 -1.31396138 26.9020694 -2 29 C-3.13874184 25.52192588 -2.90158296 22.74841044 -2.44140625 19.140625 C-2.30283203 18.02558594 -2.16425781 16.91054687 -2.02148438 15.76171875 C-1.87001953 14.60285156 -1.71855469 13.44398438 -1.5625 12.25 C-1.41490234 11.07566406 -1.26730469 9.90132812 -1.11523438 8.69140625 C-0.75003523 5.79337432 -0.37805032 2.8963788 0 0 Z " fill="#5397C8" transform="translate(452,144)"/>
<path d="M0 0 C2.87557703 -0.08138426 5.74882262 -0.14067851 8.625 -0.1875 C9.43324219 -0.21263672 10.24148438 -0.23777344 11.07421875 -0.26367188 C16.17689316 -0.32589961 19.53139688 0.24508449 24 3 C24 3.33 24 3.66 24 4 C18.44104729 4.1193869 13.07956402 3.65795767 7.5625 3 C6.32209961 2.85691406 6.32209961 2.85691406 5.05664062 2.7109375 C3.03734861 2.47749334 1.01861318 2.23924304 -1 2 C-0.67 1.34 -0.34 0.68 0 0 Z " fill="#2F72A0" transform="translate(301,152)"/>
<path d="M0 0 C3.38046873 0.1843892 6.01736487 0.34490992 8.875 2.25 C10.29035995 4.45167104 10.65198447 6.42468508 11 9 C10.34 9 9.68 9 9 9 C8.401875 8.34 7.80375 7.68 7.1875 7 C5.15230922 4.73417974 5.15230922 4.73417974 2.25 4.75 C1.5075 4.8325 0.765 4.915 0 5 C-0.33 5.66 -0.66 6.32 -1 7 C-1.66 7 -2.32 7 -3 7 C-2.25 2.25 -2.25 2.25 0 0 Z " fill="#4380AB" transform="translate(239,147)"/>
<path d="M0 0 C0.33 0 0.66 0 1 0 C1.44701413 7.56198897 1.53574091 12.76335625 -3 19 C-5 19 -7 19 -9 19 C-7.76302083 17.56770833 -6.52604167 16.13541667 -5.2890625 14.703125 C-2.80896027 11.42638387 -1.69881933 8.25140817 -0.875 4.25 C-0.70742188 3.45078125 -0.53984375 2.6515625 -0.3671875 1.828125 C-0.24601562 1.22484375 -0.12484375 0.6215625 0 0 Z " fill="#4685B3" transform="translate(392,176)"/>
<path d="M0 0 C0 3 0 3 -1.56054688 4.90112305 C-2.27275391 5.59761963 -2.98496094 6.29411621 -3.71875 7.01171875 C-4.48574219 7.76904297 -5.25273437 8.52636719 -6.04296875 9.30664062 C-6.85378906 10.09232422 -7.66460937 10.87800781 -8.5 11.6875 C-9.31082031 12.48478516 -10.12164062 13.28207031 -10.95703125 14.10351562 C-12.96482203 16.0758748 -14.9792687 18.04091492 -17 20 C-17 15.05395873 -13.33515944 12.41135816 -10 9 C-6.72596862 5.93029859 -3.38713455 2.94414915 0 0 Z " fill="#409FE1" transform="translate(385,198)"/>
<path d="M0 0 C0.66 0.33 1.32 0.66 2 1 C1.34 1.66 0.68 2.32 0 3 C0 3.99 0 4.98 0 6 C-0.639375 6.763125 -1.27875 7.52625 -1.9375 8.3125 C-4.23969228 11.3123263 -4.65447048 13.28555769 -5 17 C-5.66 17 -6.32 17 -7 17 C-7.31595292 11.73411807 -6.7979084 8.49663851 -4 4 C-1.8125 1.625 -1.8125 1.625 0 0 Z " fill="#4481AD" transform="translate(352,76)"/>
<path d="M0 0 C0 1.65 0 3.3 0 5 C-4.17737474 6.59138085 -7.53160785 7.21278058 -12 7 C-8.5063473 3.20689136 -5.42241937 0 0 0 Z " fill="#755D45" transform="translate(541,124)"/>
<path d="M0 0 C0.66 0.33 1.32 0.66 2 1 C-2.62 5.62 -7.24 10.24 -12 15 C-12.66 14.67 -13.32 14.34 -14 14 C-12.60919892 12.41224451 -11.21211596 10.82999061 -9.8125 9.25 C-8.64654297 7.92742187 -8.64654297 7.92742187 -7.45703125 6.578125 C-5.11544754 4.12113732 -2.69841735 2.05137234 0 0 Z " fill="#947D67" transform="translate(377,296)"/>
<path d="M0 0 C0.33 0.99 0.66 1.98 1 3 C-0.3094668 4.33631236 -1.62265485 5.66897925 -2.9375 7 C-4.03384766 8.11375 -4.03384766 8.11375 -5.15234375 9.25 C-7 11 -7 11 -8 11 C-8.36491677 6.4993598 -8.36491677 6.4993598 -6.8125 4.375 C-4.63828265 2.72559373 -2.37212374 1.3463405 0 0 Z " fill="#3879A7" transform="translate(387,193)"/>
<path d="M0 0 C0 0.33 0 0.66 0 1 C-1.3303125 1.061875 -1.3303125 1.061875 -2.6875 1.125 C-8.03262771 2.53692053 -10.05121549 6.57682323 -13 11 C-13.3125 8.3125 -13.3125 8.3125 -13 5 C-8.91666631 0.03378335 -6.25784428 -1.52217834 0 0 Z " fill="#5188B0" transform="translate(278,127)"/>
<path d="M0 0 C-1.29299694 2.88437779 -2.65941363 4.87219421 -5 7 C-4.67 7.66 -4.34 8.32 -4 9 C-5.98 9.66 -7.96 10.32 -10 11 C-9.42380903 7.43235179 -8.13030516 5.74840503 -5.5625 3.25 C-4.94503906 2.63640625 -4.32757813 2.0228125 -3.69140625 1.390625 C-2 0 -2 0 0 0 Z " fill="#97806B" transform="translate(439,289)"/>
<path d="M0 0 C-0.33 0.99 -0.66 1.98 -1 3 C-2.70703125 3.765625 -2.70703125 3.765625 -4.8125 4.25 C-5.49957031 4.42015625 -6.18664062 4.5903125 -6.89453125 4.765625 C-9.19499821 5.02170666 -10.80629727 4.69015367 -13 4 C-12.01 3.67 -11.02 3.34 -10 3 C-10 2.34 -10 1.68 -10 1 C-6.61981469 -0.04005702 -3.5219721 -0.08004482 0 0 Z " fill="#3777A2" transform="translate(285,154)"/>
<path d="M0 0 C2.97 0.495 2.97 0.495 6 1 C5.67 1.66 5.34 2.32 5 3 C4.34 3 3.68 3 3 3 C2.67 6.63 2.34 10.26 2 14 C1.34 13.67 0.68 13.34 0 13 C0 8.71 0 4.42 0 0 Z " fill="#7BC2F5" transform="translate(332,468)"/>
<path d="M0 0 C0.61875 0.4125 1.2375 0.825 1.875 1.25 C3.67448158 4.04919357 3.18275392 6.77134739 3 10 C2.67 10 2.34 10 2 10 C2 8.02 2 6.04 2 4 C1.38125 3.690625 0.7625 3.38125 0.125 3.0625 C-1.25 2.375 -2.625 1.6875 -4 1 C-4 0.34 -4 -0.32 -4 -1 C-7.96 -1 -11.92 -1 -16 -1 C-16 -1.33 -16 -1.66 -16 -2 C-9.82620824 -3.01269707 -5.4224714 -3.7031512 0 0 Z " fill="#9E8975" transform="translate(465,249)"/>
<path d="M0 0 C0.99 0.33 1.98 0.66 3 1 C2.79375 1.556875 2.5875 2.11375 2.375 2.6875 C1.89304789 5.659538 2.73434972 7.31979941 4 10 C1.625 11.0625 1.625 11.0625 -1 12 C-1.66 11.67 -2.32 11.34 -3 11 C-2.67 9.68 -2.34 8.36 -2 7 C-1.34 7.33 -0.68 7.66 0 8 C0 5.36 0 2.72 0 0 Z " fill="#6DBCF5" transform="translate(338,479)"/>
<path d="M0 0 C5.75 1.625 5.75 1.625 8 5 C7.34 5 6.68 5 6 5 C6 9.29 6 13.58 6 18 C5.01 18.33 4.02 18.66 3 19 C3 18.34 3 17.68 3 17 C3.66 17 4.32 17 5 17 C5 12.71 5 8.42 5 4 C3.02 3.34 1.04 2.68 -1 2 C-0.67 1.34 -0.34 0.68 0 0 Z " fill="#68BAF4" transform="translate(334,445)"/>
<path d="M0 0 C0.66 0.33 1.32 0.66 2 1 C-1.96 4.96 -5.92 8.92 -10 13 C-10.66 12.67 -11.32 12.34 -12 12 C-8.32167983 7.47384007 -4.58913637 3.60575001 0 0 Z " fill="#937B64" transform="translate(436,254)"/>
<path d="M0 0 C-1.2125738 3.72433382 -2.50859979 7.37802806 -4 11 C-4.66 11 -5.32 11 -6 11 C-6.48951049 4.63636364 -6.48951049 4.63636364 -4.125 1.5625 C-2 0 -2 0 0 0 Z " fill="#4582AD" transform="translate(448,110)"/>
<path d="M0 0 C2.9375 -0.375 2.9375 -0.375 6 0 C7.875 1.5 7.875 1.5 9 3 C5.01803543 4.05404945 2.01804691 3.84098656 -2 3 C-1.34 2.01 -0.68 1.02 0 0 Z " fill="#3B79A3" transform="translate(331,112)"/>
<path d="M0 0 C0.66 0.33 1.32 0.66 2 1 C-1.63 4.63 -5.26 8.26 -9 12 C-9 8.00102358 -7.64683965 6.93298448 -5 4 C-3.36643049 2.62631655 -1.7074998 1.28062485 0 0 Z " fill="#42A3E6" transform="translate(252,168)"/>
<path d="M0 0 C2.78211318 0.18547421 4.03946982 1.03069875 6.25 2.75 C8.3221413 5.41418168 8.36576193 6.70814262 8 10 C5 6.25 5 6.25 5 4 C2.69 3.34 0.38 2.68 -2 2 C-1.34 1.34 -0.68 0.68 0 0 Z " fill="#407FAC" transform="translate(257,138)"/>
<path d="M0 0 C4.0042343 3.49087093 5.62671065 5.64951939 6 11 C5.34 11 4.68 11 4 11 C2.50859979 7.37802806 1.2125738 3.72433382 0 0 Z " fill="#4A86B2" transform="translate(304,121)"/>
<path d="M0 0 C0.66 0.33 1.32 0.66 2 1 C1.30058404 4.14737182 0.23921302 7.02588876 -1 10 C-1.66 10 -2.32 10 -3 10 C-2.25 3.375 -2.25 3.375 0 0 Z " fill="#538AB2" transform="translate(429,101)"/>
<path d="M0 0 C0.66 0.33 1.32 0.66 2 1 C1.05125 1.886875 0.1025 2.77375 -0.875 3.6875 C-3.46748883 6.26164575 -4.9525021 8.43850715 -6 12 C-7 9 -7 9 -5.25 5.4375 C-3.65261528 2.66591829 -2.80321956 1.86881304 0 0 Z " fill="#937C66" transform="translate(470,197)"/>
<path d="M0 0 C1.32 0 2.64 0 4 0 C4.33 0.99 4.66 1.98 5 3 C4.67 3.66 4.34 4.32 4 5 C2.35 5 0.7 5 -1 5 C-0.67 3.35 -0.34 1.7 0 0 Z " fill="#775F48" transform="translate(556,165)"/>
<path d="M0 0 C0.78375 0.04125 1.5675 0.0825 2.375 0.125 C1.055 0.455 -0.265 0.785 -1.625 1.125 C-1.625 1.785 -1.625 2.445 -1.625 3.125 C-0.635 3.455 0.355 3.785 1.375 4.125 C0.735625 4.24875 0.09625 4.3725 -0.5625 4.5 C-1.5834375 4.809375 -1.5834375 4.809375 -2.625 5.125 C-2.955 5.785 -3.285 6.445 -3.625 7.125 C-4.285 7.125 -4.945 7.125 -5.625 7.125 C-4.53409091 0.21590909 -4.53409091 0.21590909 0 0 Z " fill="#4F88B1" transform="translate(241.625,146.875)"/>
<path d="M0 0 C3.3 0 6.6 0 10 0 C9.67 0.66 9.34 1.32 9 2 C6.35139573 2.59355614 3.70802678 2.74209269 1 3 C0.67 2.01 0.34 1.02 0 0 Z " fill="#745C45" transform="translate(506,118)"/>
<path d="M0 0 C1.65 0 3.3 0 5 0 C5.33 1.32 5.66 2.64 6 4 C4.35 4.33 2.7 4.66 1 5 C0.67 3.35 0.34 1.7 0 0 Z " fill="#7F6854" transform="translate(251,30)"/>
<path d="M0 0 C0.66 0.33 1.32 0.66 2 1 C0.49776416 5.20626034 -2.28550034 6.73900021 -6 9 C-6.66 8.67 -7.32 8.34 -8 8 C-7.236875 7.4225 -6.47375 6.845 -5.6875 6.25 C-3.33799083 4.28296907 -1.70676495 2.51523256 0 0 Z " fill="#9F8A77" transform="translate(418,268)"/>
<path d="M0 0 C2.01822917 0.06510417 4.03645833 0.13020833 6.0546875 0.1953125 C6.0546875 0.5253125 6.0546875 0.8553125 6.0546875 1.1953125 C4.415 1.5975 4.415 1.5975 2.7421875 2.0078125 C-0.67697577 3.10889898 -1.72123231 3.62006176 -3.9453125 6.1953125 C-4.6053125 6.1953125 -5.2653125 6.1953125 -5.9453125 6.1953125 C-3.20430126 0.32171699 -3.20430126 0.32171699 0 0 Z " fill="#41A1E5" transform="translate(389.9453125,86.8046875)"/>
<path d="M0 0 C1.65 0 3.3 0 5 0 C4 3 4 3 2 4 C0.00039988 4.039992 -2.00047242 4.04346799 -4 4 C-3.67 3.34 -3.34 2.68 -3 2 C-2.01 2 -1.02 2 0 2 C0 1.34 0 0.68 0 0 Z " fill="#745B44" transform="translate(275,40)"/>
<path d="M0 0 C1.32 0.66 2.64 1.32 4 2 C3.34 2 2.68 2 2 2 C2 6.29 2 10.58 2 15 C1.67 15 1.34 15 1 15 C0.83179449 13.06263299 0.66548905 11.12510094 0.5 9.1875 C0.4071875 8.10855469 0.314375 7.02960938 0.21875 5.91796875 C0 3 0 3 0 0 Z " fill="#62B6F4" transform="translate(330,466)"/>
<path d="M0 0 C-0.99 0.495 -0.99 0.495 -2 1 C-1.67 1.66 -1.34 2.32 -1 3 C-1.99 3 -2.98 3 -4 3 C-4 2.34 -4 1.68 -4 1 C-4.7425 1.350625 -5.485 1.70125 -6.25 2.0625 C-9.21122875 3.0720098 -10.12062561 2.87980884 -13 2 C-11.5882217 1.46605821 -10.17029756 0.94834896 -8.75 0.4375 C-7.96109375 0.14746094 -7.1721875 -0.14257812 -6.359375 -0.44140625 C-3.80896548 -1.04522837 -2.44677771 -0.8473932 0 0 Z " fill="#4F87AE" transform="translate(275,157)"/>
<path d="M0 0 C2.64 0 5.28 0 8 0 C8.33 1.32 8.66 2.64 9 4 C5.7 3.34 2.4 2.68 -1 2 C-0.67 1.34 -0.34 0.68 0 0 Z " fill="#2F72A0" transform="translate(296,121)"/>
<path d="M0 0 C1.22589844 0.01353516 1.22589844 0.01353516 2.4765625 0.02734375 C3.41628906 0.04474609 3.41628906 0.04474609 4.375 0.0625 C4.375 0.3925 4.375 0.7225 4.375 1.0625 C1.735 1.3925 -0.905 1.7225 -3.625 2.0625 C-3.625 2.7225 -3.625 3.3825 -3.625 4.0625 C-5.275 4.3925 -6.925 4.7225 -8.625 5.0625 C-6.51899199 0.39919656 -5.01778996 -0.07168271 0 0 Z " fill="#437EA8" transform="translate(299.625,119.9375)"/>
<path d="M0 0 C-0.1875 1.875 -0.1875 1.875 -1 4 C-3.5625 5.25 -3.5625 5.25 -6 6 C-5.814375 5.38125 -5.62875 4.7625 -5.4375 4.125 C-4.76313824 1.95839822 -4.76313824 1.95839822 -6 0 C-3 -1 -3 -1 0 0 Z " fill="#826C57" transform="translate(470,61)"/>
<path d="M0 0 C0.33 0 0.66 0 1 0 C1.36237263 1.62318979 1.71465157 3.2486358 2.0625 4.875 C2.25972656 5.77992187 2.45695312 6.68484375 2.66015625 7.6171875 C3 10 3 10 2 12 C1.34 12 0.68 12 0 12 C0 8.04 0 4.08 0 0 Z " fill="#479FDD" transform="translate(373,90)"/>
<path d="M0 0 C0.33 0 0.66 0 1 0 C1 4.29 1 8.58 1 13 C-1.35953094 10.64046906 -1.49141413 9.22104383 -2 6 C-1.34 6 -0.68 6 0 6 C0 4.02 0 2.04 0 0 Z " fill="#519ED4" transform="translate(347,87)"/>
<path d="M0 0 C0.66 0.33 1.32 0.66 2 1 C1.0479279 2.00596297 0.08812654 3.00461563 -0.875 4 C-1.40867187 4.556875 -1.94234375 5.11375 -2.4921875 5.6875 C-4 7 -4 7 -6 7 C-4.60667426 3.63279613 -3.0210714 2.0140476 0 0 Z " fill="#97806A" transform="translate(504,219)"/>
<path d="M0 0 C0.66 0.66 1.32 1.32 2 2 C2.33 1.67 2.66 1.34 3 1 C4.99958364 0.95919217 7.00045254 0.95745644 9 1 C9 1.33 9 1.66 9 2 C7.63875 2.4021875 7.63875 2.4021875 6.25 2.8125 C3.28528037 3.89576294 1.3830246 4.98359457 -1 7 C-0.67 4.69 -0.34 2.38 0 0 Z " fill="#529BCF" transform="translate(250,139)"/>
<path d="M0 0 C1.80411967 2.75924185 2.0127245 3.88972103 1.625 7.25 C1.41875 8.1575 1.2125 9.065 1 10 C0.34 10 -0.32 10 -1 10 C-1.125 3.375 -1.125 3.375 0 0 Z " fill="#4885B0" transform="translate(355,125)"/>
<path d="M0 0 C1.32 0.66 2.64 1.32 4 2 C3.34 3.32 2.68 4.64 2 6 C1.67 5.01 1.34 4.02 1 3 C-0.32 3.99 -1.64 4.98 -3 6 C-1.125 1.125 -1.125 1.125 0 0 Z " fill="#87735F" transform="translate(527,108)"/>
<path d="M0 0 C0 0.33 0 0.66 0 1 C-1.0725 1.28875 -2.145 1.5775 -3.25 1.875 C-6.09400364 2.72820109 -8.43508983 3.5636503 -11 5 C-10 2 -10 2 -7.75 0.25 C-4.58923143 -1.18671298 -3.25229215 -1.02214896 0 0 Z " fill="#6CBBF5" transform="translate(316,386)"/>
<path d="M0 0 C3.625 -0.1875 3.625 -0.1875 7 0 C5.68 0.33 4.36 0.66 3 1 C3.33 1.99 3.66 2.98 4 4 C1.03 3.505 1.03 3.505 -2 3 C-1.34 2.01 -0.68 1.02 0 0 Z " fill="#66B9F4" transform="translate(347,378)"/>
<path d="M0 0 C-0.33 0.33 -0.66 0.66 -1 1 C0.65 1.33 2.3 1.66 4 2 C4 2.33 4 2.66 4 3 C1.69 3 -0.62 3 -3 3 C-3 2.34 -3 1.68 -3 1 C-4.32 1.33 -5.64 1.66 -7 2 C-5.26578631 -1.46842738 -3.40984787 -1.13661596 0 0 Z " fill="#4484B1" transform="translate(331,113)"/>
<path d="M0 0 C0.99 0 1.98 0 3 0 C3 1.98 3 3.96 3 6 C2.01 5.67 1.02 5.34 0 5 C0 3.35 0 1.7 0 0 Z " fill="#48ACF3" transform="translate(335,496)"/>
<path d="M0 0 C0.66 0 1.32 0 2 0 C1.67 0.53625 1.34 1.0725 1 1.625 C-0.22699204 4.5391061 -0.14233286 6.86867708 0 10 C-2 8 -2 8 -2.25 5 C-2 2 -2 2 0 0 Z " fill="#65B8F4" transform="translate(284,363)"/>
<path d="M0 0 C0.66 0 1.32 0 2 0 C2 0.66 2 1.32 2 2 C1.34 2 0.68 2 0 2 C0 1.34 0 0.68 0 0 Z " fill="#BBAB9D" transform="translate(136,390)"/>
<path d="M0 0 C0.33 0.66 0.66 1.32 1 2 C0.34 1.67 -0.32 1.34 -1 1 C-0.67 0.67 -0.34 0.34 0 0 Z " fill="#BCAEA0" transform="translate(417,342)"/>
</svg>
